# This file uses centimeters as units for non-parametric coordinates.

g default
v 5.531180 0.113236 -0.728194
v 5.388813 0.113236 -1.443928
v 5.154242 0.113236 -2.134957
v 4.831480 0.113236 -2.789456
v 4.426049 0.113236 -3.396227
v 3.944885 0.113236 -3.944885
v 3.396225 0.113236 -4.426048
v 2.789455 0.113236 -4.831479
v 2.134956 0.113236 -5.154241
v 1.443929 0.113236 -5.388813
v 0.728194 0.113236 -5.531184
v -0.000000 0.113236 -5.578913
v -0.728194 0.113236 -5.531184
v -1.443928 0.113236 -5.388813
v -2.134957 0.113236 -5.154241
v -2.789455 0.113236 -4.831480
v -3.396226 0.113236 -4.426048
v -3.944885 0.113236 -3.944885
v -4.426047 0.113236 -3.396227
v -4.831479 0.113236 -2.789457
v -5.154240 0.113236 -2.134957
v -5.388812 0.113236 -1.443930
v -5.531183 0.113236 -0.728195
v -5.578911 0.113236 -0.000001
v -5.531183 0.113236 0.728192
v -5.388812 0.113236 1.443927
v -5.154239 0.113236 2.134954
v -4.831477 0.113236 2.789454
v -4.426046 0.113236 3.396224
v -3.944885 0.113236 3.944881
v -3.396225 0.113236 4.426044
v -2.789455 0.113236 4.831476
v -2.134957 0.113236 5.154236
v -1.443928 0.113236 5.388808
v -0.728195 0.113236 5.531179
v -0.000001 0.113236 5.578907
v 0.728192 0.113236 5.531179
v 1.443926 0.113236 5.388807
v 2.134953 0.113236 5.154235
v 2.789453 0.113236 4.831474
v 3.396222 0.113236 4.426044
v 3.944880 0.113236 3.944880
v 4.426043 0.113236 3.396223
v 4.831473 0.113236 2.789453
v 5.154234 0.113236 2.134953
v 5.388806 0.113236 1.443926
v 5.531177 0.113236 0.728193
v 5.578905 0.113236 -0.000001
v 5.531180 0.921411 -0.728194
v 5.388813 0.921411 -1.443928
v 5.154242 0.921411 -2.134957
v 4.831480 0.921411 -2.789456
v 4.426049 0.921411 -3.396227
v 3.944885 0.921411 -3.944885
v 3.396225 0.921411 -4.426048
v 2.789455 0.921411 -4.831479
v 2.134956 0.921411 -5.154241
v 1.443929 0.921411 -5.388813
v 0.728194 0.921411 -5.531184
v -0.000000 0.921411 -5.578913
v -0.728194 0.921411 -5.531184
v -1.443928 0.921411 -5.388813
v -2.134957 0.921411 -5.154241
v -2.789455 0.921411 -4.831480
v -3.396226 0.921411 -4.426048
v -3.944885 0.921411 -3.944885
v -4.426047 0.921411 -3.396227
v -4.831479 0.921411 -2.789457
v -5.154240 0.921411 -2.134957
v -5.388812 0.921411 -1.443930
v -5.531183 0.921411 -0.728195
v -5.578911 0.921411 -0.000001
v -5.531183 0.921411 0.728192
v -5.388812 0.921411 1.443927
v -5.154239 0.921411 2.134954
v -4.831477 0.921411 2.789454
v -4.426046 0.921411 3.396224
v -3.944885 0.921411 3.944881
v -3.396225 0.921411 4.426044
v -2.789455 0.921411 4.831476
v -2.134957 0.921411 5.154236
v -1.443928 0.921411 5.388808
v -0.728195 0.921411 5.531179
v -0.000001 0.921411 5.578907
v 0.728192 0.921411 5.531179
v 1.443926 0.921411 5.388807
v 2.134953 0.921411 5.154235
v 2.789453 0.921411 4.831474
v 3.396222 0.921411 4.426044
v 3.944880 0.921411 3.944880
v 4.426043 0.921411 3.396223
v 4.831473 0.921411 2.789453
v 5.154234 0.921411 2.134953
v 5.388806 0.921411 1.443926
v 5.531177 0.921411 0.728193
v 5.578905 0.921411 -0.000001
vt 0.200822 0.466232
vt 0.205021 0.466232
vt 0.205018 0.611641
vt 0.200818 0.611641
vt 0.209195 0.466232
vt 0.209198 0.611641
vt 0.196598 0.466232
vt 0.196597 0.611640
vt 0.213362 0.466231
vt 0.213363 0.611640
vt 0.192376 0.466232
vt 0.192372 0.611641
vt 0.217504 0.466232
vt 0.217509 0.611641
vt 0.188174 0.466232
vt 0.188171 0.611640
vt 0.221640 0.466232
vt 0.221646 0.611641
vt 0.183986 0.466232
vt 0.183989 0.611640
vt 0.225784 0.466232
vt 0.225786 0.611640
vt 0.179803 0.466232
vt 0.179805 0.611640
vt 0.229929 0.466232
vt 0.229934 0.611641
vt 0.175632 0.466232
vt 0.175637 0.611640
vt 0.171470 0.466232
vt 0.171475 0.611640
vt 0.167315 0.466232
vt 0.167316 0.611640
vt 0.163157 0.466232
vt 0.163163 0.611640
vt 0.047161 0.466232
vt 0.234060 0.466232
vt 0.234056 0.611640
vt 0.246421 0.611641
vt 0.238176 0.466232
vt 0.238177 0.611641
vt 0.242294 0.466232
vt 0.242289 0.611640
vt 0.246427 0.466232
vt 0.047157 0.611640
vt 0.051324 0.466232
vt 0.051317 0.611640
vt 0.055461 0.466232
vt 0.055457 0.611640
vt 0.059592 0.466232
vt 0.059592 0.611640
vt 0.063723 0.466232
vt 0.063722 0.611640
vt 0.067837 0.466232
vt 0.067841 0.611640
vt 0.071961 0.466232
vt 0.071966 0.611640
vt 0.076107 0.466232
vt 0.076108 0.611640
vt 0.080263 0.466232
vt 0.080269 0.611640
vt 0.159025 0.611640
vt 0.084405 0.466232
vt 0.084403 0.611640
vt 0.159024 0.466232
vt 0.088535 0.466232
vt 0.088537 0.611640
vt 0.092690 0.466232
vt 0.092685 0.611640
vt 0.096867 0.466232
vt 0.096865 0.611640
vt 0.101045 0.466232
vt 0.101038 0.611640
vt 0.105215 0.466232
vt 0.105210 0.611640
vt 0.109382 0.466232
vt 0.109385 0.611640
vt 0.113548 0.466232
vt 0.113548 0.611640
vt 0.117686 0.466232
vt 0.117690 0.611640
vt 0.121823 0.466232
vt 0.121828 0.611640
vt 0.125971 0.466232
vt 0.125973 0.611640
vt 0.130124 0.466232
vt 0.130130 0.611640
vt 0.154899 0.611640
vt 0.134263 0.466232
vt 0.134263 0.611640
vt 0.154898 0.466232
vt 0.138389 0.466232
vt 0.138390 0.611640
vt 0.142517 0.466232
vt 0.142510 0.611640
vt 0.146644 0.466232
vt 0.146644 0.611640
vt 0.150778 0.466232
vt 0.150771 0.611640
vn 0.991445 -0.000000 -0.130523
vn 0.965926 0.000000 -0.258818
vn 0.965926 0.000000 -0.258818
vn 0.991445 -0.000000 -0.130523
vn 0.923880 0.000000 -0.382682
vn 0.923880 0.000000 -0.382682
vn 0.866026 0.000000 -0.499999
vn 0.866026 0.000000 -0.499999
vn 0.793352 0.000000 -0.608763
vn 0.793352 0.000000 -0.608763
vn 0.707106 0.000000 -0.707108
vn 0.707106 0.000000 -0.707108
vn 0.608762 0.000000 -0.793353
vn 0.608762 0.000000 -0.793353
vn 0.500000 0.000000 -0.866026
vn 0.500000 0.000000 -0.866026
vn 0.382683 0.000000 -0.923880
vn 0.382683 0.000000 -0.923880
vn 0.258821 0.000000 -0.965925
vn 0.258821 0.000000 -0.965925
vn 0.130528 0.000000 -0.991445
vn 0.130528 0.000000 -0.991445
vn 0.000000 0.000000 -1.000000
vn 0.000000 0.000000 -1.000000
vn -0.130528 0.000000 -0.991445
vn -0.130528 0.000000 -0.991445
vn -0.258820 0.000000 -0.965925
vn -0.258820 0.000000 -0.965925
vn -0.382683 0.000000 -0.923880
vn -0.382683 0.000000 -0.923880
vn -0.499999 0.000000 -0.866026
vn -0.499999 0.000000 -0.866026
vn -0.608762 0.000000 -0.793353
vn -0.608762 0.000000 -0.793353
vn -0.707107 0.000000 -0.707107
vn -0.707107 0.000000 -0.707107
vn -0.793353 0.000000 -0.608762
vn -0.793353 0.000000 -0.608762
vn -0.866026 0.000000 -0.499999
vn -0.866026 0.000000 -0.499999
vn -0.923880 0.000000 -0.382682
vn -0.923880 0.000000 -0.382682
vn -0.965925 0.000000 -0.258820
vn -0.965925 0.000000 -0.258820
vn -0.991445 0.000000 -0.130527
vn -0.991445 0.000000 -0.130527
vn -1.000000 0.000000 -0.000000
vn -1.000000 0.000000 -0.000000
vn -0.991445 0.000000 0.130528
vn -0.991445 0.000000 0.130528
vn -0.965925 0.000000 0.258821
vn -0.965925 0.000000 0.258821
vn -0.923880 0.000000 0.382683
vn -0.923880 0.000000 0.382683
vn -0.866026 0.000000 0.499999
vn -0.866026 0.000000 0.499999
vn -0.793353 0.000000 0.608762
vn -0.793353 0.000000 0.608762
vn -0.707107 0.000000 0.707107
vn -0.707107 0.000000 0.707107
vn -0.608762 0.000000 0.793353
vn -0.608762 0.000000 0.793353
vn -0.499999 0.000000 0.866026
vn -0.499999 0.000000 0.866026
vn -0.382681 0.000000 0.923880
vn -0.382681 0.000000 0.923880
vn -0.258820 0.000000 0.965926
vn -0.258820 0.000000 0.965926
vn -0.130528 0.000000 0.991445
vn -0.130528 0.000000 0.991445
vn 0.000000 0.000000 1.000000
vn 0.000000 0.000000 1.000000
vn 0.130529 0.000000 0.991445
vn 0.130529 0.000000 0.991445
vn 0.258821 0.000000 0.965925
vn 0.258821 0.000000 0.965925
vn 0.382682 0.000000 0.923880
vn 0.382682 0.000000 0.923880
vn 0.499999 0.000000 0.866026
vn 0.499999 0.000000 0.866026
vn 0.608763 0.000000 0.793352
vn 0.608763 0.000000 0.793352
vn 0.707107 0.000000 0.707107
vn 0.707107 0.000000 0.707107
vn 0.793352 0.000000 0.608763
vn 0.793352 0.000000 0.608763
vn 0.866026 0.000000 0.499999
vn 0.866026 0.000000 0.499999
vn 0.923880 0.000000 0.382682
vn 0.923880 0.000000 0.382682
vn 0.965925 0.000000 0.258821
vn 0.965925 0.000000 0.258821
vn 0.991445 0.000000 0.130528
vn 0.991445 0.000000 0.130528
vn 1.000000 -0.000000 0.000002
vn 1.000000 -0.000000 0.000002
s 1
g pCylinder2
f 1/1/1 2/2/2 50/3/3 49/4/4
f 2/2/2 3/5/5 51/6/6 50/3/3
f 3/5/5 4/9/7 52/10/8 51/6/6
f 4/9/7 5/13/9 53/14/10 52/10/8
f 5/13/9 6/17/11 54/18/12 53/14/10
f 6/17/11 7/21/13 55/22/14 54/18/12
f 7/21/13 8/25/15 56/26/16 55/22/14
f 8/25/15 9/36/17 57/37/18 56/26/16
f 9/36/17 10/39/19 58/40/20 57/37/18
f 10/39/19 11/41/21 59/42/22 58/40/20
f 11/41/21 12/43/23 60/38/24 59/42/22
f 12/35/23 13/45/25 61/46/26 60/44/24
f 13/45/25 14/47/27 62/48/28 61/46/26
f 14/47/27 15/49/29 63/50/30 62/48/28
f 15/49/29 16/51/31 64/52/32 63/50/30
f 16/51/31 17/53/33 65/54/34 64/52/32
f 17/53/33 18/55/35 66/56/36 65/54/34
f 18/55/35 19/57/37 67/58/38 66/56/36
f 19/57/37 20/59/39 68/60/40 67/58/38
f 20/59/39 21/62/41 69/63/42 68/60/40
f 21/62/41 22/65/43 70/66/44 69/63/42
f 22/65/43 23/67/45 71/68/46 70/66/44
f 23/67/45 24/69/47 72/70/48 71/68/46
f 24/69/47 25/71/49 73/72/50 72/70/48
f 25/71/49 26/73/51 74/74/52 73/72/50
f 26/73/51 27/75/53 75/76/54 74/74/52
f 27/75/53 28/77/55 76/78/56 75/76/54
f 28/77/55 29/79/57 77/80/58 76/78/56
f 29/79/57 30/81/59 78/82/60 77/80/58
f 30/81/59 31/83/61 79/84/62 78/82/60
f 31/83/61 32/85/63 80/86/64 79/84/62
f 32/85/63 33/88/65 81/89/66 80/86/64
f 33/88/65 34/91/67 82/92/68 81/89/66
f 34/91/67 35/93/69 83/94/70 82/92/68
f 35/93/69 36/95/71 84/96/72 83/94/70
f 36/95/71 37/97/73 85/98/74 84/96/72
f 37/97/73 38/90/75 86/87/76 85/98/74
f 38/90/75 39/64/77 87/61/78 86/87/76
f 39/64/77 40/33/79 88/34/80 87/61/78
f 40/33/79 41/31/81 89/32/82 88/34/80
f 41/31/81 42/29/83 90/30/84 89/32/82
f 42/29/83 43/27/85 91/28/86 90/30/84
f 43/27/85 44/23/87 92/24/88 91/28/86
f 44/23/87 45/19/89 93/20/90 92/24/88
f 45/19/89 46/15/91 94/16/92 93/20/90
f 46/15/91 47/11/93 95/12/94 94/16/92
f 47/11/93 48/7/95 96/8/96 95/12/94
f 48/7/95 1/1/1 49/4/4 96/8/96
