# This file uses centimeters as units for non-parametric coordinates.

g default
v -1.697161 2.316302 -3.853272
v -1.588777 2.206396 -3.718045
v -1.350248 3.486057 -3.254049
v -1.241902 3.376024 -3.118851
v -1.291735 3.683354 -3.140013
v -1.192651 3.542092 -3.026428
v -1.259312 3.792667 -2.937207
v -1.174126 3.604558 -2.910498
v -1.181214 3.637206 -1.297709
v -1.101218 3.483345 -1.409167
v -1.022028 3.714906 -1.241673
v -0.942994 3.559733 -1.353667
v -1.090857 3.885331 -2.963566
v -1.005573 3.697553 -2.937207
v -1.137191 3.729097 -3.253493
v -1.037988 3.588238 -3.140013
v -1.204857 3.500937 -3.389203
v -1.096500 3.390939 -3.254049
v -1.551795 2.331096 -3.988510
v -1.443412 2.221184 -3.853272
v -1.258392 3.796072 -1.603165
v -1.173083 3.606602 -1.736518
v -1.088428 3.892532 -1.537483
v -1.004594 3.700578 -1.669549
v 1.697161 2.316302 -3.853272
v 1.588777 2.206397 -3.718045
v 1.241902 3.376024 -3.118851
v 1.350248 3.486057 -3.254049
v 1.192651 3.542091 -3.026428
v 1.291736 3.683354 -3.140013
v 1.174126 3.604558 -2.910498
v 1.259312 3.792667 -2.937207
v 1.101218 3.483344 -1.409166
v 1.181214 3.637206 -1.297709
v 1.022028 3.714906 -1.241673
v 0.942995 3.559733 -1.353667
v 1.005573 3.697552 -2.937207
v 1.090856 3.885330 -2.963566
v 1.037988 3.588238 -3.140013
v 1.137191 3.729097 -3.253493
v 1.096500 3.390940 -3.254049
v 1.204857 3.500937 -3.389203
v 1.443413 2.221185 -3.853273
v 1.551795 2.331096 -3.988510
v 1.173083 3.606602 -1.736518
v 1.258392 3.796072 -1.603166
v 1.004594 3.700578 -1.669549
v 1.088428 3.892532 -1.537483
v 1.180010 3.741907 -2.741424
v 1.093240 3.741906 -2.617727
v 1.093241 3.862319 -2.741424
v -1.093241 3.741906 -2.617727
v -1.093241 3.862319 -2.741424
v -1.180010 3.741907 -2.741425
v -1.093241 3.621496 -2.741425
v -1.093241 3.741908 -2.865121
v 1.093241 3.621495 -2.741424
v 1.093241 3.741908 -2.865121
v 1.180010 3.741907 -1.998584
v 1.093240 3.741907 -1.869499
v 1.093241 3.862319 -1.998584
v -1.093241 3.741906 -1.869499
v -1.093241 3.862319 -1.998584
v -1.180010 3.741907 -1.998584
v -1.093241 3.621496 -1.998585
v -1.093241 3.741908 -2.127669
v 1.093241 3.621496 -1.998584
v 1.093241 3.741907 -2.127669
v -0.390233 0.336074 -3.592456
v -0.390232 0.052049 -3.439040
v -0.669794 -0.089963 -3.362333
v -0.949355 0.052049 -3.439040
v -0.949356 0.336074 -3.592456
v -0.669794 0.478086 -3.669163
v -0.390233 0.142377 -4.957869
v -0.390232 -0.176827 -4.909753
v -0.669794 -0.336429 -4.885695
v -0.949355 -0.176827 -4.909753
v -0.949356 0.142377 -4.957869
v -0.669794 0.301979 -4.981926
v 0.390233 0.336074 -3.592456
v 0.390232 0.052049 -3.439040
v 0.390232 -0.176827 -4.909753
v 0.390233 0.142377 -4.957869
v 0.669794 -0.089963 -3.362334
v 0.669794 -0.336429 -4.885696
v 0.949355 0.052049 -3.439040
v 0.949355 -0.176827 -4.909753
v 0.949356 0.336074 -3.592456
v 0.949356 0.142377 -4.957869
v 0.669794 0.478086 -3.669162
v 0.669794 0.301979 -4.981926
v 1.012188 0.336074 -3.348913
v 1.012188 0.052049 -3.195498
v 1.012188 -0.176827 -4.666211
v 1.012189 0.142377 -4.714326
v 1.291749 -0.089963 -3.118791
v 1.291749 -0.336429 -4.642153
v 1.571311 0.052049 -3.195497
v 1.571310 -0.176827 -4.666211
v 1.571311 0.336074 -3.348913
v 1.571311 0.142377 -4.714326
v 1.291749 0.478086 -3.425620
v 1.291749 0.301979 -4.738384
v -1.012188 0.336074 -3.348913
v -1.012188 0.052049 -3.195498
v -1.291749 -0.089963 -3.118791
v -1.571311 0.052049 -3.195498
v -1.571311 0.336074 -3.348913
v -1.291749 0.478086 -3.425620
v -1.012188 0.142377 -4.714326
v -1.012188 -0.176827 -4.666211
v -1.291749 -0.336429 -4.642153
v -1.571310 -0.176827 -4.666211
v -1.571311 0.142377 -4.714326
v -1.291749 0.301979 -4.738383
vt 0.087324 0.905298
vt 0.087324 0.899794
vt 0.101759 0.899793
vt 0.101759 0.905298
vt 0.116195 0.899793
vt 0.116195 0.905298
vt 0.130630 0.899793
vt 0.130630 0.905298
vt 0.142308 0.899793
vt 0.143555 0.905298
vt 0.145065 0.909932
vt 0.145065 0.921248
vt 0.142957 0.921248
vt 0.144168 0.909932
vt 0.130630 0.909932
vt 0.130630 0.921248
vt 0.116195 0.921248
vt 0.116195 0.909932
vt 0.101760 0.921248
vt 0.101760 0.909932
vt 0.087324 0.921248
vt 0.087324 0.909932
vt 0.087324 0.925009
vt 0.101760 0.925009
vt 0.116195 0.925009
vt 0.130630 0.925009
vt 0.142309 0.925009
vt 0.145065 0.899793
vt 0.145065 0.905298
vt 0.145065 0.925009
vt 0.087324 0.905298
vt 0.101759 0.905298
vt 0.101759 0.899793
vt 0.087324 0.899794
vt 0.116195 0.905298
vt 0.116195 0.899793
vt 0.130630 0.905298
vt 0.130630 0.899793
vt 0.143555 0.905298
vt 0.142308 0.899793
vt 0.145065 0.909932
vt 0.144168 0.909932
vt 0.142957 0.921248
vt 0.145065 0.921248
vt 0.130630 0.909932
vt 0.116195 0.909932
vt 0.116195 0.921248
vt 0.130630 0.921248
vt 0.101760 0.909932
vt 0.101760 0.921248
vt 0.087324 0.909932
vt 0.087324 0.921248
vt 0.087324 0.925009
vt 0.101760 0.925009
vt 0.116195 0.925009
vt 0.130630 0.925009
vt 0.142309 0.925009
vt 0.145065 0.905298
vt 0.145065 0.899793
vt 0.145065 0.925009
vt 0.149660 0.916302
vt 0.155451 0.910362
vt 0.155451 0.916302
vt 0.190198 0.910362
vt 0.190198 0.916302
vt 0.195990 0.916302
vt 0.190198 0.932834
vt 0.190198 0.924568
vt 0.155451 0.932834
vt 0.155451 0.924568
vt 0.155451 0.899771
vt 0.190198 0.899771
vt 0.149660 0.916302
vt 0.155451 0.910362
vt 0.155451 0.916302
vt 0.190198 0.910362
vt 0.190198 0.916302
vt 0.195990 0.916302
vt 0.190198 0.932834
vt 0.190198 0.924568
vt 0.155451 0.932834
vt 0.155451 0.924568
vt 0.155451 0.899771
vt 0.190198 0.899771
vt 0.257111 0.904844
vt 0.257111 0.899290
vt 0.369701 0.899290
vt 0.369701 0.904844
vt 0.257111 0.932614
vt 0.257111 0.927060
vt 0.369701 0.927060
vt 0.369701 0.932614
vt 0.257111 0.921506
vt 0.369701 0.921506
vt 0.257111 0.915952
vt 0.369701 0.915952
vt 0.257111 0.910398
vt 0.369701 0.910398
vt 0.395877 0.901442
vt 0.408590 0.908605
vt 0.408743 0.923196
vt 0.396183 0.930625
vt 0.383470 0.923462
vt 0.383317 0.908871
vt 0.409637 0.922755
vt 0.397374 0.931156
vt 0.383968 0.924736
vt 0.382824 0.909916
vt 0.395086 0.901516
vt 0.408493 0.907935
vt 0.257111 0.904844
vt 0.369701 0.904844
vt 0.369701 0.899290
vt 0.257111 0.899290
vt 0.257111 0.932614
vt 0.369701 0.932614
vt 0.369701 0.927060
vt 0.257111 0.927060
vt 0.369701 0.921506
vt 0.257111 0.921506
vt 0.369701 0.915952
vt 0.257111 0.915952
vt 0.369701 0.910398
vt 0.257111 0.910398
vt 0.395877 0.901442
vt 0.383317 0.908871
vt 0.383470 0.923462
vt 0.396183 0.930625
vt 0.408743 0.923196
vt 0.408590 0.908605
vt 0.409637 0.922755
vt 0.408493 0.907935
vt 0.395086 0.901516
vt 0.382824 0.909916
vt 0.383968 0.924736
vt 0.397374 0.931156
vt 0.257111 0.904844
vt 0.369701 0.904844
vt 0.369701 0.899290
vt 0.257111 0.899290
vt 0.257111 0.932614
vt 0.369701 0.932614
vt 0.369701 0.927060
vt 0.257111 0.927060
vt 0.369701 0.921506
vt 0.257111 0.921506
vt 0.369701 0.915952
vt 0.257111 0.915952
vt 0.369701 0.910398
vt 0.257111 0.910398
vt 0.395877 0.901442
vt 0.383317 0.908871
vt 0.383470 0.923462
vt 0.396183 0.930625
vt 0.408743 0.923196
vt 0.408590 0.908605
vt 0.409637 0.922755
vt 0.408493 0.907935
vt 0.395086 0.901516
vt 0.382824 0.909916
vt 0.383968 0.924736
vt 0.397374 0.931156
vt 0.257111 0.904844
vt 0.257111 0.899290
vt 0.369701 0.899290
vt 0.369701 0.904844
vt 0.257111 0.932614
vt 0.257111 0.927060
vt 0.369701 0.927060
vt 0.369701 0.932614
vt 0.257111 0.921506
vt 0.369701 0.921506
vt 0.257111 0.915952
vt 0.369701 0.915952
vt 0.257111 0.910398
vt 0.369701 0.910398
vt 0.395877 0.901442
vt 0.408590 0.908605
vt 0.408743 0.923196
vt 0.396183 0.930625
vt 0.383470 0.923462
vt 0.383317 0.908871
vt 0.409637 0.922755
vt 0.397374 0.931156
vt 0.383968 0.924736
vt 0.382824 0.909916
vt 0.395086 0.901516
vt 0.408493 0.907935
vn -0.803695 -0.064672 0.591517
vn -0.803695 -0.064672 0.591517
vn -0.805998 -0.077829 0.586780
vn -0.805998 -0.077829 0.586780
vn -0.857213 -0.224554 0.463423
vn -0.857213 -0.224554 0.463423
vn -0.906860 -0.386634 0.167686
vn -0.906860 -0.386634 0.167686
vn -0.904213 -0.427009 0.007908
vn -0.904213 -0.427009 0.007908
vn 0.911276 0.411134 0.023364
vn 0.911276 0.411134 0.023364
vn 0.912326 0.409335 0.010332
vn 0.912326 0.409335 0.010332
vn 0.907427 0.384952 -0.168487
vn 0.907427 0.384952 -0.168487
vn 0.857413 0.228811 -0.460965
vn 0.857413 0.228811 -0.460965
vn 0.807254 0.081611 -0.584535
vn 0.807254 0.081611 -0.584535
vn 0.803656 0.064708 -0.591566
vn 0.803656 0.064708 -0.591566
vn 0.618043 -0.495818 0.610071
vn 0.618043 -0.495818 0.610071
vn 0.611601 -0.508642 0.605993
vn 0.611601 -0.508642 0.605993
vn 0.560392 -0.671332 0.485051
vn 0.560392 -0.671332 0.485051
vn 0.497695 -0.848787 0.178498
vn 0.497695 -0.848787 0.178498
vn 0.524388 -0.824890 -0.211124
vn 0.524388 -0.824890 -0.211124
vn -0.617987 0.495829 -0.610119
vn -0.617987 0.495829 -0.610119
vn -0.610261 0.512693 -0.603927
vn -0.610261 0.512693 -0.603927
vn -0.557782 0.675162 -0.482738
vn -0.557782 0.675162 -0.482738
vn -0.498227 0.848274 -0.179446
vn -0.498227 0.848274 -0.179446
vn -0.535436 0.803145 0.261277
vn -0.535436 0.803145 0.261277
vn -0.896917 -0.441970 0.014205
vn -0.896917 -0.441970 0.014205
vn 0.538011 -0.734674 -0.413277
vn 0.538011 -0.734674 -0.413277
vn -0.542112 0.671461 0.505227
vn -0.542112 0.671461 0.505227
vn 0.803694 -0.064672 0.591518
vn 0.805997 -0.077829 0.586780
vn 0.805997 -0.077829 0.586780
vn 0.803694 -0.064672 0.591518
vn 0.857213 -0.224554 0.463424
vn 0.857213 -0.224554 0.463424
vn 0.906860 -0.386635 0.167687
vn 0.906860 -0.386635 0.167687
vn 0.904213 -0.427009 0.007908
vn 0.904213 -0.427009 0.007908
vn -0.911276 0.411132 0.023363
vn -0.912326 0.409334 0.010331
vn -0.912326 0.409334 0.010331
vn -0.911276 0.411132 0.023363
vn -0.907428 0.384951 -0.168487
vn -0.857413 0.228810 -0.460964
vn -0.857413 0.228810 -0.460964
vn -0.907428 0.384951 -0.168487
vn -0.807254 0.081611 -0.584535
vn -0.807254 0.081611 -0.584535
vn -0.803656 0.064708 -0.591566
vn -0.803656 0.064708 -0.591566
vn -0.618044 -0.495819 0.610071
vn -0.611602 -0.508642 0.605991
vn -0.611602 -0.508642 0.605991
vn -0.618044 -0.495819 0.610071
vn -0.560391 -0.671333 0.485050
vn -0.560391 -0.671333 0.485050
vn -0.497693 -0.848787 0.178498
vn -0.497693 -0.848787 0.178498
vn -0.524388 -0.824890 -0.211124
vn -0.524388 -0.824890 -0.211124
vn 0.617987 0.495829 -0.610120
vn 0.610260 0.512693 -0.603927
vn 0.610260 0.512693 -0.603927
vn 0.617987 0.495829 -0.610120
vn 0.557781 0.675163 -0.482738
vn 0.557781 0.675163 -0.482738
vn 0.498226 0.848275 -0.179445
vn 0.498226 0.848275 -0.179445
vn 0.535435 0.803146 0.261278
vn 0.535435 0.803146 0.261278
vn 0.896918 -0.441970 0.014205
vn 0.896918 -0.441970 0.014205
vn -0.538013 -0.734673 -0.413277
vn -0.538013 -0.734673 -0.413277
vn 0.542112 0.671461 0.505228
vn 0.542112 0.671461 0.505228
vn 0.705112 0.508108 0.494614
vn 0.381382 0.662398 0.644807
vn 0.381382 0.662398 0.644807
vn -0.381385 0.662397 0.644807
vn -0.381385 0.662397 0.644807
vn -0.705116 0.508104 0.494612
vn -0.705109 -0.508110 -0.494618
vn -0.381380 -0.662399 -0.644808
vn -0.381380 -0.662399 -0.644808
vn 0.381383 -0.662398 -0.644807
vn 0.381383 -0.662398 -0.644807
vn 0.705114 -0.508106 -0.494613
vn 0.705114 0.508107 -0.494612
vn 0.381383 0.662399 -0.644806
vn 0.381383 0.662399 -0.644806
vn -0.381384 0.662399 -0.644805
vn -0.381384 0.662399 -0.644805
vn -0.705116 0.508106 -0.494611
vn 0.705114 -0.508109 0.494611
vn 0.381383 -0.662402 0.644803
vn 0.381383 -0.662402 0.644803
vn -0.381382 -0.662404 0.644802
vn -0.381382 -0.662404 0.644802
vn -0.705112 -0.508113 0.494609
vn 0.712271 0.513264 0.478780
vn 0.386067 0.674553 0.629231
vn 0.386067 0.674553 0.629231
vn -0.386067 0.674553 0.629230
vn -0.386067 0.674553 0.629230
vn -0.712272 0.513264 0.478779
vn -0.712268 -0.513268 -0.478780
vn -0.386065 -0.674553 -0.629231
vn -0.386065 -0.674553 -0.629231
vn 0.386066 -0.674553 -0.629230
vn 0.386066 -0.674553 -0.629230
vn 0.712270 -0.513267 -0.478779
vn 0.712269 0.513266 -0.478780
vn 0.386066 0.674555 -0.629229
vn 0.386066 0.674555 -0.629229
vn -0.386067 0.674555 -0.629228
vn -0.386067 0.674555 -0.629228
vn -0.712271 0.513267 -0.478777
vn 0.712273 -0.513266 0.478775
vn 0.386068 -0.674556 0.629226
vn 0.386068 -0.674556 0.629226
vn -0.386068 -0.674558 0.629224
vn -0.386068 -0.674558 0.629224
vn -0.712272 -0.513270 0.478772
vn 1.000000 0.000003 -0.000000
vn 1.000000 0.000003 -0.000000
vn 1.000000 0.000003 -0.000000
vn 1.000000 0.000003 -0.000000
vn 0.489285 -0.861336 0.136746
vn 0.489285 -0.861336 0.136746
vn 0.489285 -0.861336 0.136746
vn 0.489285 -0.861336 0.136746
vn -0.489286 -0.861336 0.136746
vn -0.489286 -0.861336 0.136746
vn -0.489286 -0.861336 0.136746
vn -0.489286 -0.861336 0.136746
vn -1.000000 -0.000002 0.000000
vn -1.000000 -0.000002 0.000000
vn -1.000000 -0.000002 0.000000
vn -1.000000 -0.000002 0.000000
vn -0.487953 0.864666 -0.119394
vn -0.487953 0.864666 -0.119394
vn -0.487953 0.864666 -0.119394
vn -0.487953 0.864666 -0.119394
vn 0.487954 0.864665 -0.119393
vn 0.487954 0.864665 -0.119393
vn 0.487954 0.864665 -0.119393
vn 0.487954 0.864665 -0.119393
vn 0.000000 0.475249 0.879851
vn 0.000000 0.475249 0.879851
vn 0.000000 0.475249 0.879851
vn 0.000000 0.475249 0.879851
vn 0.000000 0.475249 0.879851
vn 0.000000 0.475249 0.879851
vn -0.000000 -0.149052 -0.988829
vn -0.000000 -0.149052 -0.988829
vn -0.000000 -0.149052 -0.988829
vn -0.000000 -0.149052 -0.988829
vn -0.000000 -0.149052 -0.988829
vn -0.000000 -0.149052 -0.988829
vn -1.000000 0.000003 -0.000000
vn -1.000000 0.000003 -0.000000
vn -1.000000 0.000003 -0.000000
vn -1.000000 0.000003 -0.000000
vn -0.489285 -0.861336 0.136746
vn -0.489285 -0.861336 0.136746
vn -0.489285 -0.861336 0.136746
vn -0.489285 -0.861336 0.136746
vn 0.489286 -0.861336 0.136746
vn 0.489286 -0.861336 0.136746
vn 0.489286 -0.861336 0.136746
vn 0.489286 -0.861336 0.136746
vn 1.000000 -0.000002 0.000000
vn 1.000000 -0.000002 0.000000
vn 1.000000 -0.000002 0.000000
vn 1.000000 -0.000002 0.000000
vn 0.487953 0.864666 -0.119394
vn 0.487953 0.864666 -0.119394
vn 0.487953 0.864666 -0.119394
vn 0.487953 0.864666 -0.119394
vn -0.487954 0.864665 -0.119393
vn -0.487954 0.864665 -0.119393
vn -0.487954 0.864665 -0.119393
vn -0.487954 0.864665 -0.119393
vn 0.000000 0.475248 0.879852
vn 0.000000 0.475248 0.879852
vn 0.000000 0.475248 0.879852
vn 0.000000 0.475248 0.879852
vn 0.000000 0.475248 0.879852
vn 0.000000 0.475248 0.879852
vn 0.000000 -0.149052 -0.988829
vn 0.000000 -0.149052 -0.988829
vn 0.000000 -0.149052 -0.988829
vn 0.000000 -0.149052 -0.988829
vn 0.000000 -0.149052 -0.988829
vn 0.000000 -0.149052 -0.988829
vn -1.000000 0.000002 -0.000000
vn -1.000000 0.000002 -0.000000
vn -1.000000 0.000002 -0.000000
vn -1.000000 0.000002 -0.000000
vn -0.489286 -0.861336 0.136746
vn -0.489286 -0.861336 0.136746
vn -0.489286 -0.861336 0.136746
vn -0.489286 -0.861336 0.136746
vn 0.489286 -0.861336 0.136746
vn 0.489286 -0.861336 0.136746
vn 0.489286 -0.861336 0.136746
vn 0.489286 -0.861336 0.136746
vn 1.000000 -0.000002 0.000000
vn 1.000000 -0.000002 0.000000
vn 1.000000 -0.000002 0.000000
vn 1.000000 -0.000002 0.000000
vn 0.487953 0.864666 -0.119394
vn 0.487953 0.864666 -0.119394
vn 0.487953 0.864666 -0.119394
vn 0.487953 0.864666 -0.119394
vn -0.487954 0.864665 -0.119394
vn -0.487954 0.864665 -0.119394
vn -0.487954 0.864665 -0.119394
vn -0.487954 0.864665 -0.119394
vn -0.000001 0.475249 0.879851
vn -0.000001 0.475249 0.879851
vn -0.000001 0.475249 0.879851
vn -0.000001 0.475249 0.879851
vn -0.000001 0.475249 0.879851
vn -0.000001 0.475249 0.879851
vn 0.000000 -0.149052 -0.988829
vn 0.000000 -0.149052 -0.988829
vn 0.000000 -0.149052 -0.988829
vn 0.000000 -0.149052 -0.988829
vn 0.000000 -0.149052 -0.988829
vn 0.000000 -0.149052 -0.988829
vn 1.000000 0.000002 -0.000000
vn 1.000000 0.000002 -0.000000
vn 1.000000 0.000002 -0.000000
vn 1.000000 0.000002 -0.000000
vn 0.489286 -0.861336 0.136746
vn 0.489286 -0.861336 0.136746
vn 0.489286 -0.861336 0.136746
vn 0.489286 -0.861336 0.136746
vn -0.489286 -0.861336 0.136746
vn -0.489286 -0.861336 0.136746
vn -0.489286 -0.861336 0.136746
vn -0.489286 -0.861336 0.136746
vn -1.000000 -0.000002 0.000000
vn -1.000000 -0.000002 0.000000
vn -1.000000 -0.000002 0.000000
vn -1.000000 -0.000002 0.000000
vn -0.487953 0.864666 -0.119394
vn -0.487953 0.864666 -0.119394
vn -0.487953 0.864666 -0.119394
vn -0.487953 0.864666 -0.119394
vn 0.487954 0.864665 -0.119394
vn 0.487954 0.864665 -0.119394
vn 0.487954 0.864665 -0.119394
vn 0.487954 0.864665 -0.119394
vn 0.000000 0.475249 0.879851
vn 0.000000 0.475249 0.879851
vn 0.000000 0.475249 0.879851
vn 0.000000 0.475249 0.879851
vn 0.000000 0.475249 0.879851
vn 0.000000 0.475249 0.879851
vn 0.000000 -0.149052 -0.988829
vn 0.000000 -0.149052 -0.988829
vn 0.000000 -0.149052 -0.988829
vn 0.000000 -0.149052 -0.988829
vn 0.000000 -0.149052 -0.988829
vn 0.000000 -0.149052 -0.988829
s 1
g polySurface163
f 1/1/1 2/2/2 4/3/3 3/4/4
f 3/4/4 4/3/3 6/5/5 5/6/6
f 5/6/6 6/5/5 8/7/7 7/8/8
f 7/8/8 8/7/7 22/9/9 21/10/10
s 2
f 11/11/11 12/12/12 24/13/13 23/14/14
f 13/15/15 14/16/16 16/17/17 15/18/18
f 15/18/18 16/17/17 18/19/19 17/20/20
f 17/20/20 18/19/19 20/21/21 19/22/22
s 3
f 2/23/23 20/21/24 18/19/25 4/24/26
f 4/24/26 18/19/25 16/17/27 6/25/28
f 6/25/28 16/17/27 14/16/29 8/26/30
f 8/26/30 14/16/29 24/13/31 22/27/32
s 4
f 19/22/33 1/1/34 3/4/35 17/20/36
f 17/20/36 3/4/35 5/6/37 15/18/38
f 15/18/38 5/6/37 7/8/39 13/15/40
f 13/15/40 7/8/39 21/10/41 23/14/42
s 1
f 21/10/10 22/9/9 10/28/43 9/29/44
s 2
f 23/14/14 24/13/13 14/16/16 13/15/15
s 3
f 22/27/32 24/13/31 12/12/45 10/30/46
s 4
f 23/14/42 21/10/41 9/29/47 11/11/48
s 5
f 25/31/49 28/32/50 27/33/51 26/34/52
f 28/32/50 30/35/53 29/36/54 27/33/51
f 30/35/53 32/37/55 31/38/56 29/36/54
f 32/37/55 46/39/57 45/40/58 31/38/56
s 6
f 35/41/59 48/42/60 47/43/61 36/44/62
f 38/45/63 40/46/64 39/47/65 37/48/66
f 40/46/64 42/49/67 41/50/68 39/47/65
f 42/49/67 44/51/69 43/52/70 41/50/68
s 7
f 26/53/71 27/54/72 41/50/73 43/52/74
f 27/54/72 29/55/75 39/47/76 41/50/73
f 29/55/75 31/56/77 37/48/78 39/47/76
f 31/56/77 45/57/79 47/43/80 37/48/78
s 8
f 44/51/81 42/49/82 28/32/83 25/31/84
f 42/49/82 40/46/85 30/35/86 28/32/83
f 40/46/85 38/45/87 32/37/88 30/35/86
f 38/45/87 48/42/89 46/39/90 32/37/88
s 5
f 45/40/58 46/39/57 34/58/91 33/59/92
s 6
f 47/43/61 48/42/60 38/45/63 37/48/66
s 7
f 47/43/80 45/57/79 33/60/93 36/44/94
s 8
f 46/39/90 48/42/89 35/41/95 34/58/96
s 9
f 49/61/97 51/62/98 50/63/99
f 51/62/98 53/64/100 52/65/101 50/63/99
f 52/65/101 53/64/100 54/66/102
s 10
f 54/66/103 56/67/104 55/68/105
f 56/67/104 58/69/106 57/70/107 55/68/105
f 57/70/107 58/69/106 49/61/108
s 11
f 49/61/109 58/71/110 51/62/111
f 51/62/111 58/71/110 56/72/112 53/64/113
f 53/64/113 56/72/112 54/66/114
s 12
f 49/61/115 50/63/116 57/70/117
f 50/63/116 52/65/118 55/68/119 57/70/117
f 55/68/119 52/65/118 54/66/120
s 13
f 59/73/121 61/74/122 60/75/123
f 61/74/122 63/76/124 62/77/125 60/75/123
f 62/77/125 63/76/124 64/78/126
s 14
f 64/78/127 66/79/128 65/80/129
f 66/79/128 68/81/130 67/82/131 65/80/129
f 67/82/131 68/81/130 59/73/132
s 15
f 59/73/133 68/83/134 61/74/135
f 61/74/135 68/83/134 66/84/136 63/76/137
f 63/76/137 66/84/136 64/78/138
s 16
f 59/73/139 60/75/140 67/82/141
f 60/75/140 62/77/142 65/80/143 67/82/141
f 65/80/143 62/77/142 64/78/144
s off
f 69/85/145 70/86/146 76/87/147 75/88/148
f 70/89/149 71/90/150 77/91/151 76/92/152
f 71/90/153 72/93/154 78/94/155 77/91/156
f 72/93/157 73/95/158 79/96/159 78/94/160
f 73/95/161 74/97/162 80/98/163 79/96/164
f 74/97/165 69/85/166 75/88/167 80/98/168
f 69/99/169 74/100/170 73/101/171 72/102/172 71/103/173 70/104/174
f 75/105/175 76/106/176 77/107/177 78/108/178 79/109/179 80/110/180
f 81/111/181 84/112/182 83/113/183 82/114/184
f 82/115/185 83/116/186 86/117/187 85/118/188
f 85/118/189 86/117/190 88/119/191 87/120/192
f 87/120/193 88/119/194 90/121/195 89/122/196
f 89/122/197 90/121/198 92/123/199 91/124/200
f 91/124/201 92/123/202 84/112/203 81/111/204
f 81/125/205 82/126/206 85/127/207 87/128/208 89/129/209 91/130/210
f 84/131/211 92/132/212 90/133/213 88/134/214 86/135/215 83/136/216
f 93/137/217 96/138/218 95/139/219 94/140/220
f 94/141/221 95/142/222 98/143/223 97/144/224
f 97/144/225 98/143/226 100/145/227 99/146/228
f 99/146/229 100/145/230 102/147/231 101/148/232
f 101/148/233 102/147/234 104/149/235 103/150/236
f 103/150/237 104/149/238 96/138/239 93/137/240
f 93/151/241 94/152/242 97/153/243 99/154/244 101/155/245 103/156/246
f 96/157/247 104/158/248 102/159/249 100/160/250 98/161/251 95/162/252
f 105/163/253 106/164/254 112/165/255 111/166/256
f 106/167/257 107/168/258 113/169/259 112/170/260
f 107/168/261 108/171/262 114/172/263 113/169/264
f 108/171/265 109/173/266 115/174/267 114/172/268
f 109/173/269 110/175/270 116/176/271 115/174/272
f 110/175/273 105/163/274 111/166/275 116/176/276
f 105/177/277 110/178/278 109/179/279 108/180/280 107/181/281 106/182/282
f 111/183/283 112/184/284 113/185/285 114/186/286 115/187/287 116/188/288
