# This file uses centimeters as units for non-parametric coordinates.

g default
v -1.282040 2.953713 -2.602997
v -0.915437 2.622812 -2.760798
v -0.915437 2.790951 -2.261689
v -0.915437 4.426135 -1.900831
v -1.282040 4.095231 -2.058632
v -0.915437 3.932469 -1.717323
v -1.282040 5.282022 -4.547297
v -0.915436 5.612924 -4.389495
v -1.282040 4.140503 -5.091661
v -0.915437 3.809601 -5.249461
v -0.000000 5.612925 -4.389495
v -0.000000 3.809600 -5.249462
v -0.000000 2.622811 -2.760798
v -0.000000 3.932470 -1.717324
v -0.000000 2.790951 -2.261690
v -0.000000 4.426135 -1.900832
v -0.831250 4.568551 -5.828102
v -1.092899 4.183191 -5.020013
v -0.831250 3.947021 -5.132637
v -0.831250 4.435124 -4.899872
v -0.548879 4.183191 -5.020013
v -0.831250 5.576283 -5.347537
v -1.092899 5.190922 -4.539447
v -0.831250 4.938989 -4.659589
v -0.831250 5.427092 -4.426823
v -0.548879 5.190922 -4.539448
v -0.831250 5.072417 -5.587820
v -1.092899 4.687057 -4.779730
v -0.548879 4.687057 -4.779730
v -0.266508 4.568551 -5.828102
v -0.266508 3.947021 -5.132637
v -0.266508 4.435124 -4.899872
v -0.000000 4.183191 -5.020013
v -0.266508 5.576283 -5.347537
v -0.266508 4.938989 -4.659589
v -0.266508 5.427092 -4.426823
v -0.000000 5.190922 -4.539448
v -0.266508 5.072417 -5.587820
v -0.000000 4.687057 -4.779730
v 1.282039 5.282021 -4.547297
v 0.915436 5.612924 -4.389495
v 0.915437 3.809601 -5.249461
v 1.282040 4.140503 -5.091661
v 1.282040 2.953713 -2.602997
v 1.282040 4.095231 -2.058632
v 0.915436 4.426135 -1.900831
v 0.915437 2.622812 -2.760798
v 0.915437 2.790951 -2.261689
v 0.915437 3.932469 -1.717323
v 0.831250 4.568551 -5.828103
v 0.831250 3.947021 -5.132637
v 1.092899 4.183190 -5.020013
v 0.831250 4.435124 -4.899872
v 0.548879 4.183191 -5.020014
v 0.831250 5.576283 -5.347537
v 0.831250 4.938989 -4.659589
v 1.092899 5.190922 -4.539447
v 0.831250 5.427091 -4.426823
v 0.548879 5.190922 -4.539448
v 0.831250 5.072417 -5.587820
v 1.092899 4.687057 -4.779730
v 0.548879 4.687057 -4.779730
v 0.266508 4.568551 -5.828103
v 0.266508 3.947021 -5.132637
v 0.266508 4.435124 -4.899872
v 0.266508 5.576283 -5.347537
v 0.266508 4.938989 -4.659589
v 0.266508 5.427091 -4.426823
v 0.266508 5.072417 -5.587820
v -1.282040 5.060878 -4.083565
v -1.282040 3.919360 -4.627930
v -0.915437 3.588457 -4.785730
v -0.000000 3.588457 -4.785730
v 0.915437 3.588457 -4.785730
v 1.282040 3.919360 -4.627930
v 1.282039 5.060878 -4.083565
v 0.915436 5.391781 -3.925764
v -0.000000 5.391782 -3.925764
v -0.915436 5.391781 -3.925764
v -1.637291 1.986005 -2.508450
v -1.267084 1.986005 -2.508451
v -1.637291 1.986005 -4.136123
v -1.267084 1.986005 -4.136124
v -1.637291 4.291787 -3.129230
v -1.637291 4.102008 -2.901006
v -1.267084 4.291787 -3.129231
v -1.267084 4.102008 -2.901006
v -1.637291 4.102008 -3.743566
v -1.637291 4.291787 -3.515342
v -1.267084 4.102008 -3.743567
v -1.267084 4.291787 -3.515342
v 1.637291 1.986005 -2.508450
v 1.267084 1.986005 -2.508450
v 1.267084 4.102008 -2.901006
v 1.637291 4.102008 -2.901006
v 1.637291 4.291787 -3.129230
v 1.267084 4.291787 -3.129231
v 1.267084 4.291787 -3.515342
v 1.637291 4.291787 -3.515342
v 1.637291 4.102008 -3.743567
v 1.267084 4.102008 -3.743567
v 1.267084 1.986005 -4.136125
v 1.637291 1.986005 -4.136123
vt 0.429017 0.442122
vt 0.418511 0.452627
vt 0.391310 0.452627
vt 0.391310 0.395376
vt 0.418511 0.395376
vt 0.429017 0.405881
vt 0.430791 0.470732
vt 0.430791 0.531512
vt 0.536330 0.509926
vt 0.536330 0.553383
vt 0.416441 0.541841
vt 0.416441 0.557203
vt 0.431803 0.541841
vt 0.416441 0.502066
vt 0.431803 0.502066
vt 0.345846 0.396515
vt 0.358347 0.396515
vt 0.358347 0.439641
vt 0.345846 0.442330
vt 0.430791 0.471110
vt 0.430791 0.501566
vt 0.355658 0.452142
vt 0.390716 0.439641
vt 0.390716 0.452142
vt 0.390716 0.396515
vt 0.437294 0.734173
vt 0.452426 0.734281
vt 0.437223 0.749385
vt 0.422161 0.734141
vt 0.437364 0.719075
vt 0.437294 0.734173
vt 0.452426 0.734281
vt 0.437223 0.749385
vt 0.422161 0.734141
vt 0.437364 0.719075
vt 0.437294 0.734173
vt 0.452426 0.734281
vt 0.437223 0.749385
vt 0.422161 0.734141
vt 0.437364 0.719075
vt 0.437294 0.734173
vt 0.452426 0.734281
vt 0.437223 0.749385
vt 0.422161 0.734141
vt 0.437364 0.719075
vt 0.437294 0.734173
vt 0.452426 0.734281
vt 0.437223 0.749385
vt 0.422161 0.734141
vt 0.437364 0.719075
vt 0.437294 0.734173
vt 0.452426 0.734281
vt 0.437223 0.749385
vt 0.422161 0.734141
vt 0.437364 0.719075
vt 0.429017 0.442122
vt 0.418511 0.452627
vt 0.391310 0.452627
vt 0.391310 0.395376
vt 0.418511 0.395376
vt 0.429017 0.405881
vt 0.430791 0.470732
vt 0.430791 0.531512
vt 0.536330 0.509926
vt 0.536330 0.553383
vt 0.416441 0.541841
vt 0.416441 0.557203
vt 0.431803 0.541841
vt 0.416441 0.502066
vt 0.431803 0.502066
vt 0.345846 0.396515
vt 0.358347 0.396515
vt 0.358347 0.439641
vt 0.345846 0.442330
vt 0.430791 0.471110
vt 0.430791 0.501566
vt 0.355658 0.452142
vt 0.390716 0.439641
vt 0.390716 0.452142
vt 0.390716 0.396515
vt 0.437294 0.734173
vt 0.452426 0.734281
vt 0.437223 0.749385
vt 0.422161 0.734141
vt 0.437364 0.719075
vt 0.437294 0.734173
vt 0.452426 0.734281
vt 0.437223 0.749385
vt 0.422161 0.734141
vt 0.437364 0.719075
vt 0.437294 0.734173
vt 0.452426 0.734281
vt 0.437223 0.749385
vt 0.422161 0.734141
vt 0.437364 0.719075
vt 0.437294 0.734173
vt 0.452426 0.734281
vt 0.437223 0.749385
vt 0.422161 0.734141
vt 0.437364 0.719075
vt 0.437294 0.734173
vt 0.452426 0.734281
vt 0.437223 0.749385
vt 0.422161 0.734141
vt 0.437364 0.719075
vt 0.437294 0.734173
vt 0.452426 0.734281
vt 0.437223 0.749385
vt 0.422161 0.734141
vt 0.437364 0.719075
vt 0.326261 0.531512
vt 0.326261 0.471110
vt 0.326261 0.470732
vt 0.326313 0.557204
vt 0.326313 0.541841
vt 0.326313 0.502066
vt 0.326313 0.502066
vt 0.326313 0.541841
vt 0.326313 0.557204
vt 0.326261 0.470732
vt 0.326261 0.471110
vt 0.326261 0.531512
vt 0.326261 0.501566
vt 0.436753 0.509926
vt 0.436753 0.553383
vt 0.436753 0.553383
vt 0.436753 0.509926
vt 0.326261 0.501566
vt 0.479130 0.572173
vt 0.491698 0.572173
vt 0.491698 0.581062
vt 0.479130 0.581062
vt 0.491698 0.569597
vt 0.479130 0.569597
vt 0.491698 0.583639
vt 0.479130 0.583639
vt 0.479130 0.616984
vt 0.491699 0.616984
vt 0.479130 0.563162
vt 0.491698 0.563162
vt 0.479130 0.610550
vt 0.491699 0.610550
vt 0.491699 0.607973
vt 0.479130 0.607973
vt 0.491698 0.590073
vt 0.479130 0.599084
vt 0.491698 0.599084
vt 0.479130 0.590073
vt 0.491699 0.596508
vt 0.479130 0.596508
vt 0.385801 0.459460
vt 0.385801 0.453564
vt 0.419502 0.453564
vt 0.419502 0.459460
vt 0.422525 0.459460
vt 0.422525 0.453564
vt 0.428675 0.453564
vt 0.428675 0.459460
vt 0.432309 0.459460
vt 0.432310 0.453564
vt 0.466012 0.453568
vt 0.466011 0.459464
vt 0.431761 0.451872
vt 0.504084 0.438455
vt 0.510570 0.430655
vt 0.510570 0.417458
vt 0.504084 0.409657
vt 0.431761 0.396240
vt 0.431761 0.451872
vt 0.431761 0.396240
vt 0.504084 0.409657
vt 0.510570 0.417458
vt 0.510570 0.430655
vt 0.504084 0.438455
vt 0.385801 0.459460
vt 0.419502 0.459460
vt 0.419502 0.453564
vt 0.385801 0.453564
vt 0.422525 0.459460
vt 0.428675 0.459460
vt 0.428675 0.453564
vt 0.422525 0.453564
vt 0.432309 0.459460
vt 0.466011 0.459464
vt 0.466012 0.453568
vt 0.432310 0.453564
vt 0.431761 0.451872
vt 0.431761 0.396240
vt 0.504084 0.409657
vt 0.510570 0.417458
vt 0.510570 0.430655
vt 0.504084 0.438455
vt 0.431761 0.451872
vt 0.504084 0.438455
vt 0.510570 0.430655
vt 0.510570 0.417458
vt 0.504084 0.409657
vt 0.431761 0.396240
vn 0.000000 0.430439 -0.902619
vn 0.000000 0.430439 -0.902619
vn 0.000000 0.430439 -0.902619
vn 0.000000 0.430439 -0.902619
vn 0.000000 0.430439 -0.902619
vn 0.000000 0.430439 -0.902619
vn -1.000000 0.000000 0.000000
vn -1.000000 0.000000 0.000000
vn -1.000000 0.000000 0.000000
vn -1.000000 0.000000 0.000000
vn -0.000001 0.902619 0.430440
vn -0.000000 0.902619 0.430439
vn -0.000000 0.902619 0.430439
vn -0.000001 0.902619 0.430440
vn -0.707105 -0.638250 -0.304367
vn -0.707105 -0.638250 -0.304367
vn -0.707106 -0.638249 -0.304367
vn -0.707106 -0.638249 -0.304367
vn -0.000000 -0.947670 0.319251
vn -0.000000 -0.947670 0.319251
vn -0.000000 -0.947670 0.319251
vn -0.000000 -0.947670 0.319251
vn -0.717966 -0.299620 0.628294
vn -0.717966 -0.299620 0.628294
vn -0.717966 -0.299620 0.628294
vn -0.717966 -0.299620 0.628294
vn -0.707107 0.638248 0.304366
vn -0.707107 0.638248 0.304366
vn -0.707107 0.638248 0.304367
vn -0.707107 0.638248 0.304367
vn 0.000000 0.348431 0.937334
vn 0.000000 0.348431 0.937334
vn 0.000000 0.348431 0.937334
vn 0.000000 0.348431 0.937334
vn -0.583214 -0.769810 0.259333
vn -0.583214 -0.769810 0.259333
vn -0.583214 -0.769810 0.259333
vn -0.583216 0.283037 0.761413
vn -0.583216 0.283037 0.761413
vn -0.583216 0.283037 0.761413
vn -0.000001 -0.902620 -0.430439
vn -0.000001 -0.902620 -0.430439
vn -0.000001 -0.902620 -0.430439
vn -0.000001 -0.902620 -0.430439
vn 0.000001 -0.430440 0.902619
vn 0.000001 -0.430440 0.902619
vn 0.000001 -0.430440 0.902619
vn 0.000001 -0.430440 0.902619
vn -0.692473 -0.537929 -0.480742
vn -0.692473 -0.537929 -0.480742
vn -0.692473 -0.537929 -0.480742
vn 0.686324 0.719896 0.103481
vn 0.686324 0.719896 0.103481
vn 0.686324 0.719896 0.103481
vn 0.664580 -0.557147 -0.497916
vn 0.664580 -0.557147 -0.497916
vn 0.664580 -0.557147 -0.497916
vn -0.713524 0.693503 0.099687
vn -0.713524 0.693503 0.099687
vn -0.713524 0.693503 0.099687
vn -0.713524 -0.513982 -0.476136
vn -0.713524 -0.513982 -0.476136
vn -0.713524 -0.513982 -0.476136
vn 0.664581 0.737596 0.119518
vn 0.664581 0.737596 0.119518
vn 0.664581 0.737596 0.119518
vn 0.686324 -0.533544 -0.494258
vn 0.686324 -0.533544 -0.494258
vn 0.686324 -0.533544 -0.494258
vn -0.692475 0.712153 0.115396
vn -0.692475 0.712153 0.115396
vn -0.692475 0.712153 0.115396
vn -0.713524 -0.513982 -0.476137
vn -0.713524 -0.513982 -0.476137
vn -0.713524 -0.513982 -0.476137
vn 0.686324 0.719897 0.103481
vn 0.686324 0.719897 0.103481
vn 0.686324 0.719897 0.103481
vn 0.686324 -0.533544 -0.494258
vn 0.686324 -0.533544 -0.494258
vn 0.686324 -0.533544 -0.494258
vn -0.713524 0.693502 0.099687
vn -0.713524 0.693502 0.099687
vn -0.713524 0.693502 0.099687
vn -0.664579 -0.557147 -0.497917
vn -0.664579 -0.557147 -0.497917
vn -0.664579 -0.557147 -0.497917
vn 0.707048 0.699971 0.100617
vn 0.707048 0.699971 0.100617
vn 0.707048 0.699971 0.100617
vn 0.685816 -0.542651 -0.484961
vn 0.685816 -0.542651 -0.484961
vn 0.685816 -0.542651 -0.484961
vn -0.686324 0.719897 0.103481
vn -0.686324 0.719897 0.103481
vn -0.686324 0.719897 0.103481
vn -0.686323 -0.533544 -0.494258
vn -0.686323 -0.533544 -0.494258
vn -0.686323 -0.533544 -0.494258
vn 0.685816 0.718405 0.116409
vn 0.685816 0.718405 0.116409
vn 0.685816 0.718405 0.116409
vn 0.707047 -0.518777 -0.480577
vn 0.707047 -0.518777 -0.480577
vn 0.707047 -0.518777 -0.480577
vn -0.664581 0.737596 0.119519
vn -0.664581 0.737596 0.119519
vn -0.664581 0.737596 0.119519
vn -0.686324 -0.533543 -0.494258
vn -0.686324 -0.533543 -0.494258
vn -0.686324 -0.533543 -0.494258
vn 0.707048 0.699971 0.100617
vn 0.707048 0.699971 0.100617
vn 0.707048 0.699971 0.100617
vn 0.707047 -0.518776 -0.480578
vn 0.707047 -0.518776 -0.480578
vn 0.707047 -0.518776 -0.480578
vn -0.686324 0.719897 0.103481
vn -0.686324 0.719897 0.103481
vn -0.686324 0.719897 0.103481
vn 0.000000 0.430439 -0.902619
vn 0.000000 0.430439 -0.902619
vn 0.000000 0.430439 -0.902619
vn 0.000000 0.430439 -0.902619
vn 0.000000 0.430439 -0.902619
vn 0.000000 0.430439 -0.902619
vn 1.000000 0.000001 0.000000
vn 1.000000 0.000001 0.000000
vn 1.000000 0.000000 0.000000
vn 1.000000 0.000000 0.000000
vn 0.000000 0.902619 0.430440
vn 0.000000 0.902619 0.430440
vn 0.000000 0.902619 0.430439
vn 0.000000 0.902619 0.430439
vn 0.707105 -0.638250 -0.304367
vn 0.707106 -0.638249 -0.304367
vn 0.707106 -0.638249 -0.304367
vn 0.707105 -0.638250 -0.304367
vn 0.000000 -0.947670 0.319251
vn 0.000000 -0.947670 0.319251
vn 0.000000 -0.947670 0.319251
vn 0.000000 -0.947670 0.319251
vn 0.717966 -0.299620 0.628293
vn 0.717966 -0.299620 0.628293
vn 0.717966 -0.299620 0.628293
vn 0.717966 -0.299620 0.628293
vn 0.707107 0.638248 0.304366
vn 0.707107 0.638248 0.304366
vn 0.707107 0.638248 0.304366
vn 0.707107 0.638248 0.304366
vn -0.000001 0.348431 0.937334
vn -0.000001 0.348431 0.937334
vn -0.000001 0.348431 0.937334
vn -0.000001 0.348431 0.937334
vn 0.583214 -0.769811 0.259332
vn 0.583214 -0.769811 0.259332
vn 0.583214 -0.769811 0.259332
vn 0.583218 0.283036 0.761411
vn 0.583218 0.283036 0.761411
vn 0.583218 0.283036 0.761411
vn 0.000001 -0.902620 -0.430439
vn 0.000001 -0.902620 -0.430439
vn 0.000001 -0.902620 -0.430439
vn 0.000001 -0.902620 -0.430439
vn -0.000002 -0.430440 0.902619
vn -0.000002 -0.430440 0.902619
vn -0.000002 -0.430440 0.902619
vn -0.000002 -0.430440 0.902619
vn 0.692475 -0.537928 -0.480740
vn 0.692475 -0.537928 -0.480740
vn 0.692475 -0.537928 -0.480740
vn -0.686324 0.719896 0.103481
vn -0.686324 0.719896 0.103481
vn -0.686324 0.719896 0.103481
vn -0.664580 -0.557147 -0.497916
vn -0.664580 -0.557147 -0.497916
vn -0.664580 -0.557147 -0.497916
vn 0.713525 0.693502 0.099687
vn 0.713525 0.693502 0.099687
vn 0.713525 0.693502 0.099687
vn 0.713524 -0.513982 -0.476137
vn 0.713524 -0.513982 -0.476137
vn 0.713524 -0.513982 -0.476137
vn -0.664580 0.737597 0.119520
vn -0.664580 0.737597 0.119520
vn -0.664580 0.737597 0.119520
vn -0.686324 -0.533544 -0.494258
vn -0.686324 -0.533544 -0.494258
vn -0.686324 -0.533544 -0.494258
vn 0.692474 0.712154 0.115397
vn 0.692474 0.712154 0.115397
vn 0.692474 0.712154 0.115397
vn 0.713523 -0.513983 -0.476137
vn 0.713523 -0.513983 -0.476137
vn 0.713523 -0.513983 -0.476137
vn -0.686325 0.719896 0.103481
vn -0.686325 0.719896 0.103481
vn -0.686325 0.719896 0.103481
vn -0.686324 -0.533543 -0.494258
vn -0.686324 -0.533543 -0.494258
vn -0.686324 -0.533543 -0.494258
vn 0.713524 0.693503 0.099687
vn 0.713524 0.693503 0.099687
vn 0.713524 0.693503 0.099687
vn 0.664579 -0.557147 -0.497917
vn 0.664579 -0.557147 -0.497917
vn 0.664579 -0.557147 -0.497917
vn -0.707049 0.699970 0.100616
vn -0.707049 0.699970 0.100616
vn -0.707049 0.699970 0.100616
vn -0.685816 -0.542650 -0.484961
vn -0.685816 -0.542650 -0.484961
vn -0.685816 -0.542650 -0.484961
vn 0.686325 0.719896 0.103480
vn 0.686325 0.719896 0.103480
vn 0.686325 0.719896 0.103480
vn 0.686324 -0.533544 -0.494258
vn 0.686324 -0.533544 -0.494258
vn 0.686324 -0.533544 -0.494258
vn -0.685816 0.718405 0.116410
vn -0.685816 0.718405 0.116410
vn -0.685816 0.718405 0.116410
vn -0.707047 -0.518776 -0.480578
vn -0.707047 -0.518776 -0.480578
vn -0.707047 -0.518776 -0.480578
vn 0.664580 0.737597 0.119519
vn 0.664580 0.737597 0.119519
vn 0.664580 0.737597 0.119519
vn 0.686323 -0.533544 -0.494258
vn 0.686323 -0.533544 -0.494258
vn 0.686323 -0.533544 -0.494258
vn -0.707048 0.699971 0.100617
vn -0.707048 0.699971 0.100617
vn -0.707048 0.699971 0.100617
vn -0.707047 -0.518777 -0.480578
vn -0.707047 -0.518777 -0.480578
vn -0.707047 -0.518777 -0.480578
vn 0.686324 0.719896 0.103481
vn 0.686324 0.719896 0.103481
vn 0.686324 0.719896 0.103481
vn -1.000000 0.000000 0.000000
vn -1.000000 0.000000 0.000000
vn -0.707106 -0.638249 -0.304367
vn -0.707106 -0.638249 -0.304367
vn -0.000001 -0.902620 -0.430439
vn -0.000001 -0.902620 -0.430439
vn 0.000001 -0.902620 -0.430439
vn 0.000001 -0.902620 -0.430439
vn 0.707106 -0.638249 -0.304367
vn 0.707106 -0.638249 -0.304367
vn 1.000000 0.000001 0.000000
vn 1.000000 0.000001 0.000000
vn 0.707107 0.638248 0.304367
vn 0.707107 0.638248 0.304367
vn 0.000001 0.902619 0.430440
vn 0.000001 0.902619 0.430440
vn -0.000001 0.902619 0.430441
vn -0.000001 0.902619 0.430441
vn -0.707107 0.638248 0.304367
vn -0.707107 0.638248 0.304367
vn 0.000002 0.182405 0.983223
vn 0.000002 0.182405 0.983223
vn 0.000002 0.182405 0.983223
vn 0.000002 0.182405 0.983223
vn 0.000000 1.000000 -0.000001
vn 0.000000 1.000000 -0.000001
vn 0.000000 1.000000 -0.000001
vn 0.000000 1.000000 -0.000001
vn -0.000002 0.182406 -0.983223
vn -0.000002 0.182406 -0.983223
vn -0.000002 0.182406 -0.983223
vn -0.000002 0.182406 -0.983223
vn 0.000002 0.768898 0.639372
vn 0.000002 0.768898 0.639372
vn 0.000002 0.768898 0.639372
vn 0.000002 0.768898 0.639372
vn 0.000000 0.768897 -0.639372
vn 0.000000 0.768897 -0.639372
vn 0.000000 0.768897 -0.639372
vn 0.000000 0.768897 -0.639372
vn -1.000000 0.000000 0.000000
vn -1.000000 0.000000 0.000000
vn -1.000000 0.000000 0.000000
vn -1.000000 0.000000 0.000000
vn -1.000000 0.000000 0.000000
vn -1.000000 0.000000 0.000000
vn 1.000000 0.000000 -0.000000
vn 1.000000 0.000000 -0.000000
vn 1.000000 0.000000 -0.000000
vn 1.000000 0.000000 -0.000000
vn 1.000000 0.000000 -0.000000
vn 1.000000 0.000000 -0.000000
vn -0.000001 0.182405 0.983223
vn -0.000001 0.182405 0.983223
vn -0.000001 0.182405 0.983223
vn -0.000001 0.182405 0.983223
vn -0.000000 1.000000 0.000000
vn -0.000000 1.000000 0.000000
vn -0.000000 1.000000 0.000000
vn -0.000000 1.000000 0.000000
vn 0.000003 0.182406 -0.983223
vn 0.000003 0.182406 -0.983223
vn 0.000003 0.182406 -0.983223
vn 0.000003 0.182406 -0.983223
vn -0.000002 0.768898 0.639371
vn -0.000002 0.768898 0.639371
vn -0.000002 0.768898 0.639371
vn -0.000002 0.768898 0.639371
vn 0.000000 0.768897 -0.639372
vn 0.000000 0.768897 -0.639372
vn 0.000000 0.768897 -0.639372
vn 0.000000 0.768897 -0.639372
vn 1.000000 0.000000 -0.000000
vn 1.000000 0.000000 -0.000000
vn 1.000000 0.000000 -0.000000
vn 1.000000 0.000000 -0.000000
vn 1.000000 0.000000 -0.000000
vn 1.000000 0.000000 -0.000000
vn -1.000000 -0.000000 -0.000000
vn -1.000000 -0.000000 -0.000000
vn -1.000000 -0.000000 -0.000000
vn -1.000000 -0.000000 -0.000000
vn -1.000000 -0.000000 -0.000000
vn -1.000000 -0.000000 -0.000000
s off
g polySurface347
f 7/1/1 8/2/2 11/3/3 12/4/4 10/5/5 9/6/6
s 2
f 71/113/7 1/7/8 5/8/9 70/111/10
s 3
f 79/127/11 4/9/12 16/10/13 78/125/14
s 4
f 2/11/15 1/12/16 71/114/17 72/115/18
s off
f 3/13/19 2/11/20 13/14/21 15/15/22
f 1/16/23 3/17/24 6/18/25 5/19/26
s 7
f 5/20/27 4/21/28 79/128/29 70/112/30
s off
f 4/22/31 6/18/32 14/23/33 16/24/34
f 1/12/35 2/11/36 3/13/37
f 4/22/38 5/19/39 6/18/40
s 11
f 73/117/41 13/14/42 2/11/43 72/115/44
s off
f 15/25/45 14/23/46 6/18/47 3/17/48
f 17/26/49 19/27/50 18/28/51
f 20/29/52 21/30/53 17/26/54
f 17/26/55 21/30/56 19/27/57
f 17/26/58 18/28/59 20/29/60
f 22/31/61 24/32/62 23/33/63
f 25/34/64 26/35/65 22/31/66
f 22/31/67 26/35/68 24/32/69
f 22/31/70 23/33/71 25/34/72
f 27/36/73 20/37/74 28/38/75
f 24/39/76 29/40/77 27/36/78
f 27/36/79 29/40/80 20/37/81
f 27/36/82 28/38/83 24/39/84
f 30/41/85 31/42/86 21/43/87
f 32/44/88 33/45/89 30/41/90
f 30/41/91 33/45/92 31/42/93
f 30/41/94 21/43/95 32/44/96
f 34/46/97 35/47/98 26/48/99
f 36/49/100 37/50/101 34/46/102
f 34/46/103 37/50/104 35/47/105
f 34/46/106 26/48/107 36/49/108
f 38/51/109 32/52/110 29/53/111
f 35/54/112 39/55/113 38/51/114
f 38/51/115 39/55/116 32/52/117
f 38/51/118 29/53/119 35/54/120
f 40/56/121 43/61/122 42/60/123 12/59/124 11/58/125 41/57/126
s 38
f 75/120/127 76/122/128 45/63/129 44/62/130
s 39
f 77/124/131 78/126/132 16/65/133 46/64/134
s 40
f 47/66/135 74/118/136 75/119/137 44/67/138
s off
f 48/68/139 15/70/140 13/69/141 47/66/142
f 44/71/143 45/74/144 49/73/145 48/72/146
s 43
f 45/75/147 76/121/148 77/123/149 46/76/150
s off
f 46/77/151 16/79/152 14/78/153 49/73/154
f 44/67/155 48/68/156 47/66/157
f 46/77/158 49/73/159 45/74/160
s 47
f 73/116/161 74/118/162 47/66/163 13/69/164
s off
f 15/80/165 48/72/166 49/73/167 14/78/168
f 50/81/169 52/83/170 51/82/171
f 53/84/172 50/81/173 54/85/174
f 50/81/175 51/82/176 54/85/177
f 50/81/178 53/84/179 52/83/180
f 55/86/181 57/88/182 56/87/183
f 58/89/184 55/86/185 59/90/186
f 55/86/187 56/87/188 59/90/189
f 55/86/190 58/89/191 57/88/192
f 60/91/193 61/93/194 53/92/195
f 56/94/196 60/91/197 62/95/198
f 60/91/199 53/92/200 62/95/201
f 60/91/202 56/94/203 61/93/204
f 63/96/205 54/98/206 64/97/207
f 65/99/208 63/96/209 33/100/210
f 63/96/211 64/97/212 33/100/213
f 63/96/214 65/99/215 54/98/216
f 66/101/217 59/103/218 67/102/219
f 68/104/220 66/101/221 37/105/222
f 66/101/223 67/102/224 37/105/225
f 66/101/226 68/104/227 59/103/228
f 69/106/229 62/108/230 65/107/231
f 67/109/232 69/106/233 39/110/234
f 69/106/235 65/107/236 39/110/237
f 69/106/238 67/109/239 62/108/240
s 2
f 9/129/241 71/130/7 70/131/10 7/132/242
s 4
f 72/133/18 71/130/17 9/129/243 10/134/244
s 11
f 12/139/245 73/140/41 72/133/44 10/134/246
s 47
f 12/137/247 42/141/248 74/142/162 73/138/161
s 40
f 75/143/137 74/142/136 42/141/249 43/144/250
s 38
f 43/144/251 40/146/252 76/147/128 75/143/127
s 43
f 77/149/149 76/147/148 40/146/253 41/150/254
s 39
f 41/150/255 11/148/256 78/145/132 77/149/131
s 3
f 8/136/257 79/135/11 78/145/14 11/148/258
s 7
f 70/131/30 79/135/29 8/136/259 7/132/260
s off
f 80/151/261 81/152/262 87/153/263 85/154/264
f 84/155/265 86/156/266 91/157/267 89/158/268
f 88/159/269 90/160/270 83/161/271 82/162/272
f 84/155/273 85/154/274 87/153/275 86/156/276
f 88/159/277 89/158/278 91/157/279 90/160/280
f 80/163/281 85/164/282 84/165/283 89/166/284 88/167/285 82/168/286
f 81/169/287 83/170/288 90/171/289 91/172/290 86/173/291 87/174/292
f 92/175/293 95/176/294 94/177/295 93/178/296
f 96/179/297 99/180/298 98/181/299 97/182/300
f 100/183/301 103/184/302 102/185/303 101/186/304
f 96/179/305 97/182/306 94/177/307 95/176/308
f 100/183/309 101/186/310 98/181/311 99/180/312
f 92/187/313 103/188/314 100/189/315 99/190/316 96/191/317 95/192/318
f 93/193/319 94/194/320 97/195/321 98/196/322 101/197/323 102/198/324
