# This file uses centimeters as units for non-parametric coordinates.

g default
v -1.693040 3.247571 -2.618181
v -1.712063 3.411542 -2.636452
v -1.712063 3.295465 -3.678156
v -1.693040 3.131493 -3.659885
v 0.000000 3.298796 -2.623889
v -0.000000 3.462767 -2.642160
v -0.000000 3.346689 -3.683864
v 0.000000 3.182718 -3.665593
v -2.763563 3.077535 -2.688763
v -2.835352 3.047174 -2.863635
v -2.589483 3.111918 -2.616859
v -2.853741 3.205680 -2.881298
v -2.782004 3.236383 -2.706463
v -2.608052 3.271594 -2.634653
v -2.763562 2.981165 -3.553605
v -2.589483 2.998877 -3.631313
v -2.835352 2.990043 -3.376338
v -2.782004 3.140013 -3.571305
v -2.853741 3.148549 -3.394001
v -2.608052 3.158553 -3.649105
v -1.587627 3.302276 -2.846101
v -1.587627 2.419549 -2.604705
v -1.382316 3.302276 -2.846101
v -1.382316 2.419549 -2.604705
v -1.382316 3.252500 -3.292802
v -1.382316 2.369773 -3.051405
v -1.587627 3.252500 -3.292802
v -1.587627 2.369773 -3.051405
v 1.693040 3.247571 -2.618181
v 1.712063 3.411542 -2.636452
v 1.712063 3.295465 -3.678156
v 1.693040 3.131494 -3.659885
v 2.853741 3.148549 -3.394001
v 2.835352 2.990043 -3.376338
v 2.835352 3.047174 -2.863636
v 2.853741 3.205680 -2.881298
v 2.589483 3.111918 -2.616859
v 2.589483 2.998877 -3.631313
v 2.608052 3.271594 -2.634653
v 2.608052 3.158553 -3.649105
v 2.763563 3.077535 -2.688763
v 2.782005 3.236383 -2.706464
v 2.763563 2.981166 -3.553604
v 2.782005 3.140013 -3.571305
v 1.587627 3.302276 -2.846102
v 1.587627 2.419549 -2.604705
v 1.382316 2.419549 -2.604705
v 1.382316 3.302276 -2.846102
v 1.382316 2.369773 -3.051405
v 1.382316 3.252500 -3.292802
v 1.587627 2.369773 -3.051405
v 1.587627 3.252500 -3.292802
vt 0.245948 0.761607
vt 0.144820 0.761419
vt 0.246445 0.750866
vt 0.301893 0.751065
vt 0.303686 0.761538
vt 0.320251 0.754051
vt 0.313665 0.747277
vt 0.320179 0.683883
vt 0.246440 0.686942
vt 0.328016 0.737367
vt 0.301802 0.686933
vt 0.317567 0.702365
vt 0.317743 0.735524
vt 0.328075 0.700535
vt 0.313567 0.690667
vt 0.246582 0.676397
vt 0.302552 0.676200
vt 0.312062 0.671434
vt 0.312254 0.618724
vt 0.316449 0.660719
vt 0.144677 0.612724
vt 0.247430 0.613099
vt 0.301726 0.614127
vt 0.316563 0.629471
vt 0.316227 0.534754
vt 0.316195 0.604918
vt 0.300373 0.604918
vt 0.300405 0.534754
vt 0.265735 0.604918
vt 0.265767 0.534754
vt 0.249913 0.604918
vt 0.249913 0.534754
vt 0.215275 0.604918
vt 0.215307 0.534754
vt 0.144627 0.676350
vt 0.144810 0.687408
vt 0.144817 0.750497
vt 0.245948 0.761607
vt 0.144820 0.761419
vt 0.144817 0.750497
vt 0.246445 0.750866
vt 0.144810 0.687408
vt 0.246440 0.686942
vt 0.144627 0.676350
vt 0.246582 0.676397
vt 0.144677 0.612724
vt 0.247430 0.613099
vt 0.317567 0.702365
vt 0.328075 0.700535
vt 0.328016 0.737367
vt 0.317743 0.735524
vt 0.301726 0.614127
vt 0.316563 0.629471
vt 0.316449 0.660719
vt 0.302552 0.676200
vt 0.301893 0.751065
vt 0.303686 0.761538
vt 0.301802 0.686933
vt 0.320251 0.754051
vt 0.313665 0.747277
vt 0.320179 0.683883
vt 0.313567 0.690667
vt 0.312254 0.618724
vt 0.312062 0.671434
vt 0.316227 0.534754
vt 0.316195 0.604918
vt 0.300373 0.604918
vt 0.300405 0.534754
vt 0.265735 0.604918
vt 0.265767 0.534754
vt 0.249913 0.604918
vt 0.249913 0.534754
vt 0.215275 0.604918
vt 0.215307 0.534754
vn -0.007515 0.109881 0.993916
vn 0.000000 0.110745 0.993849
vn 0.000000 0.110745 0.993849
vn -0.007515 0.109881 0.993916
vn -0.092028 0.989631 -0.110275
vn -0.030091 0.993399 -0.110695
vn -0.030091 0.993399 -0.110695
vn -0.092028 0.989631 -0.110275
vn -0.007515 -0.111604 -0.993724
vn 0.000000 -0.110745 -0.993849
vn 0.000000 -0.110745 -0.993849
vn -0.007515 -0.111604 -0.993724
vn 0.089812 -0.989832 0.110298
vn 0.030429 -0.993389 0.110694
vn 0.030429 -0.993389 0.110694
vn 0.089812 -0.989832 0.110298
vn -0.974716 -0.133099 -0.179482
vn -0.974716 -0.133099 -0.179482
vn -0.974716 -0.090325 0.204378
vn -0.974716 -0.090325 0.204378
vn 0.148877 -0.982773 0.109512
vn 0.148877 -0.982773 0.109512
vn 0.148877 -0.982773 0.109511
vn 0.148877 -0.982773 0.109511
vn -0.206800 0.084587 0.974720
vn -0.206800 0.084587 0.974720
vn -0.153611 0.982053 -0.109431
vn -0.153611 0.982053 -0.109431
vn -0.153611 0.982053 -0.109431
vn -0.153611 0.982053 -0.109431
vn -0.206800 -0.132052 -0.969431
vn -0.206800 -0.132052 -0.969431
vn -0.919317 -0.063414 0.388376
vn -0.919317 -0.063414 0.388376
vn -0.390765 0.056971 0.918726
vn -0.390765 0.056971 0.918726
vn -0.390765 -0.146664 -0.908731
vn -0.390765 -0.146664 -0.908731
vn -0.919316 -0.147352 -0.364891
vn -0.919316 -0.147352 -0.364891
vn 0.148876 -0.982773 0.109513
vn -0.153611 0.982053 -0.109431
vn 0.148876 -0.982773 0.109510
vn -0.153611 0.982053 -0.109431
vn 0.000000 0.263781 0.964583
vn 0.000000 0.263781 0.964583
vn 0.000000 0.263781 0.964583
vn 0.000000 0.263781 0.964583
vn 1.000000 0.000000 0.000000
vn 1.000000 0.000000 0.000000
vn 1.000000 0.000000 0.000000
vn 1.000000 0.000000 0.000000
vn 0.000000 -0.263781 -0.964583
vn 0.000000 -0.263781 -0.964583
vn 0.000000 -0.263781 -0.964583
vn 0.000000 -0.263781 -0.964583
vn -1.000000 0.000000 0.000000
vn -1.000000 0.000000 0.000000
vn -1.000000 0.000000 0.000000
vn -1.000000 0.000000 0.000000
vn 0.007515 0.109881 0.993916
vn 0.007515 0.109881 0.993916
vn 0.000000 0.110745 0.993849
vn 0.000000 0.110745 0.993849
vn 0.092028 0.989631 -0.110275
vn 0.092028 0.989631 -0.110275
vn 0.030091 0.993399 -0.110695
vn 0.030091 0.993399 -0.110695
vn 0.007515 -0.111604 -0.993724
vn 0.007515 -0.111604 -0.993724
vn -0.000000 -0.110745 -0.993849
vn -0.000000 -0.110745 -0.993849
vn -0.089812 -0.989832 0.110297
vn -0.089812 -0.989832 0.110297
vn -0.030429 -0.993389 0.110693
vn -0.030429 -0.993389 0.110693
vn 0.974716 -0.133098 -0.179482
vn 0.974716 -0.090325 0.204378
vn 0.974716 -0.090325 0.204378
vn 0.974716 -0.133098 -0.179482
vn -0.148877 -0.982773 0.109513
vn -0.148877 -0.982773 0.109513
vn -0.148877 -0.982773 0.109512
vn -0.148877 -0.982773 0.109512
vn 0.206802 0.084587 0.974719
vn 0.206802 0.084587 0.974719
vn 0.153610 0.982053 -0.109432
vn 0.153610 0.982053 -0.109432
vn 0.153611 0.982053 -0.109430
vn 0.153611 0.982053 -0.109430
vn 0.206799 -0.132052 -0.969431
vn 0.206799 -0.132052 -0.969431
vn 0.919316 -0.063414 0.388377
vn 0.919316 -0.063414 0.388377
vn 0.390768 0.056972 0.918725
vn 0.390768 0.056972 0.918725
vn 0.390763 -0.146664 -0.908732
vn 0.390763 -0.146664 -0.908732
vn 0.919316 -0.147351 -0.364892
vn 0.919316 -0.147351 -0.364892
vn -0.148875 -0.982773 0.109513
vn 0.153609 0.982053 -0.109433
vn -0.148876 -0.982773 0.109516
vn 0.153611 0.982054 -0.109429
vn 0.000000 0.263781 0.964583
vn 0.000000 0.263781 0.964583
vn 0.000000 0.263781 0.964583
vn 0.000000 0.263781 0.964583
vn -1.000000 0.000000 -0.000000
vn -1.000000 0.000000 -0.000000
vn -1.000000 0.000000 -0.000000
vn -1.000000 0.000000 -0.000000
vn 0.000000 -0.263781 -0.964583
vn 0.000000 -0.263781 -0.964583
vn 0.000000 -0.263781 -0.964583
vn 0.000000 -0.263781 -0.964583
vn 1.000000 -0.000000 0.000000
vn 1.000000 -0.000000 0.000000
vn 1.000000 -0.000000 0.000000
vn 1.000000 -0.000000 0.000000
s 1
g polySurface133
f 1/1/1 5/2/2 6/37/3 2/3/4
s 2
f 2/3/5 6/37/6 7/36/7 3/9/8
s 3
f 3/9/9 7/36/10 8/35/11 4/16/12
s 4
f 4/16/13 8/35/14 5/21/15 1/22/16
s 5
f 19/12/17 17/14/18 10/10/19 12/13/20
s 4
f 4/16/13 1/22/16 11/23/21 10/24/22 17/20/23 16/17/24
s 1
f 1/1/1 2/3/4 14/4/25 11/5/26
s 2
f 2/3/5 3/9/8 20/11/27 19/12/28 12/13/29 14/4/30
s 3
f 3/9/9 4/16/12 16/17/31 20/11/32
s 5
f 10/10/19 9/6/33 13/7/34 12/13/20
s 1
f 9/6/35 11/5/26 14/4/25 13/7/36
s 3
f 16/17/31 15/8/37 18/15/38 20/11/32
s 5
f 15/8/39 17/14/18 19/12/17 18/15/40
s 4
f 9/19/41 10/24/22 11/23/21
s 2
f 12/13/29 13/7/42 14/4/30
s 4
f 15/18/43 16/17/24 17/20/23
s 2
f 18/15/44 19/12/28 20/11/27
s off
f 21/25/45 22/26/46 24/27/47 23/28/48
f 23/28/49 24/27/50 26/29/51 25/30/52
f 25/30/53 26/29/54 28/31/55 27/32/56
f 27/32/57 28/31/58 22/33/59 21/34/60
s 10
f 29/38/61 30/41/62 6/40/63 5/39/64
s 11
f 30/41/65 31/43/66 7/42/67 6/40/68
s 12
f 31/43/69 32/45/70 8/44/71 7/42/72
s 13
f 32/45/73 29/47/74 5/46/75 8/44/76
s 14
f 33/48/77 36/51/78 35/50/79 34/49/80
s 13
f 32/45/73 38/55/81 34/54/82 35/53/83 37/52/84 29/47/74
s 10
f 29/38/61 37/57/85 39/56/86 30/41/62
s 11
f 30/41/65 39/56/87 36/51/88 33/48/89 40/58/90 31/43/66
s 12
f 31/43/69 40/58/91 38/55/92 32/45/70
s 14
f 35/50/79 36/51/78 42/60/93 41/59/94
s 10
f 41/59/95 42/60/96 39/56/86 37/57/85
s 12
f 38/55/92 40/58/91 44/62/97 43/61/98
s 14
f 43/61/99 44/62/100 33/48/77 34/49/80
s 13
f 41/63/101 37/52/84 35/53/83
s 11
f 36/51/88 39/56/87 42/60/102
s 13
f 43/64/103 34/54/82 38/55/81
s 11
f 44/62/104 40/58/90 33/48/89
s off
f 45/65/105 48/68/106 47/67/107 46/66/108
f 48/68/109 50/70/110 49/69/111 47/67/112
f 50/70/113 52/72/114 51/71/115 49/69/116
f 52/72/117 45/74/118 46/73/119 51/71/120
