# This file uses centimeters as units for non-parametric coordinates.

g default
v -1.541239 3.484640 2.044513
v -1.882730 3.626090 2.044513
v -2.224222 3.484639 2.044513
v -2.365672 3.143149 2.044513
v -2.224222 2.801657 2.044513
v -1.882731 2.660207 2.044513
v -1.541239 2.801657 2.044513
v -1.399789 3.143149 2.044513
v -1.502404 3.523474 3.464711
v -1.882730 3.681010 3.464710
v -2.263057 3.523474 3.464710
v -2.420593 3.143148 3.464711
v -2.263057 2.762823 3.464711
v -1.882730 2.605287 3.464711
v -1.502404 2.762823 3.464711
v -1.344868 3.143149 3.464711
v -2.383437 2.617645 2.623279
v -2.383437 3.066296 2.623279
v -1.934786 2.617645 2.623279
v -1.934786 3.066296 2.623279
v -1.934786 2.617645 3.071931
v -1.934786 3.066296 3.071931
v -2.383437 2.617645 3.071931
v -2.383437 3.066296 3.071931
v -1.551354 2.919252 2.453548
v -1.882731 3.056512 2.453548
v -2.214107 2.919252 2.453548
v -2.351368 2.587875 2.453548
v -2.214107 2.256499 2.453548
v -1.882730 2.119238 2.453548
v -1.551354 2.256499 2.453548
v -1.414093 2.587875 2.453548
v -1.551354 2.919251 3.166248
v -1.882730 3.056512 3.166248
v -2.214107 2.919252 3.166248
v -2.351368 2.587875 3.166248
v -2.214107 2.256499 3.166248
v -1.882730 2.119238 3.166248
v -1.551354 2.256499 3.166248
v -1.414093 2.587875 3.166248
v -1.633479 3.392400 3.299544
v -1.882730 3.495642 3.299544
v -2.131981 3.392400 3.299544
v -2.235224 3.143148 3.299544
v -2.131981 2.893897 3.299544
v -1.882730 2.790654 3.299544
v -1.633479 2.893897 3.299544
v -1.530236 3.143148 3.299544
v -1.591970 3.433909 5.734632
v -1.882730 3.554345 5.734632
v -2.173490 3.433908 5.734632
v -2.293927 3.143148 5.734632
v -2.173490 2.852388 5.734632
v -1.882730 2.731951 5.734632
v -1.591970 2.852388 5.734632
v -1.471533 3.143148 5.734632
v 2.383437 2.617645 2.623279
v 2.383437 3.066296 2.623279
v 1.934786 3.066296 2.623279
v 1.934786 2.617645 2.623279
v 1.934786 2.617645 3.071930
v 1.934786 3.066296 3.071930
v 2.383437 3.066296 3.071931
v 2.383437 2.617645 3.071931
v 2.214107 2.919252 2.453548
v 2.351368 2.587875 2.453548
v 2.351368 2.587875 3.166248
v 2.214107 2.919252 3.166248
v 2.214107 2.256499 2.453548
v 2.214107 2.256499 3.166248
v 1.882730 2.119238 2.453548
v 1.882730 2.119238 3.166248
v 1.551354 2.256499 2.453548
v 1.551354 2.256499 3.166248
v 1.414093 2.587875 2.453548
v 1.414093 2.587875 3.166248
v 1.551354 2.919252 2.453548
v 1.551354 2.919251 3.166248
v 1.882730 3.056512 2.453548
v 1.882730 3.056512 3.166248
v 1.633480 3.392400 3.299544
v 1.882730 3.495642 3.299544
v 1.882731 3.577811 5.734632
v 1.575377 3.450502 5.734632
v 2.131981 3.392399 3.299544
v 2.190084 3.450501 5.734632
v 2.235224 3.143148 3.299544
v 2.317394 3.143148 5.734632
v 2.131982 2.893897 3.299544
v 2.190084 2.835795 5.734632
v 1.882730 2.790654 3.299544
v 1.882730 2.708485 5.734632
v 1.633479 2.893897 3.299544
v 1.575377 2.835794 5.734632
v 1.530236 3.143148 3.299544
v 1.448067 3.143148 5.734632
v 2.224222 3.484640 2.044513
v 1.882730 3.626090 2.044513
v 1.541239 3.484639 2.044513
v 1.399789 3.143148 2.044513
v 1.541239 2.801657 2.044513
v 1.882730 2.660207 2.044513
v 2.224221 2.801657 2.044513
v 2.365672 3.143148 2.044513
v 2.252491 3.512908 3.464711
v 1.882730 3.666068 3.464711
v 1.512970 3.512908 3.464711
v 1.359810 3.143148 3.464711
v 1.512970 2.773388 3.464711
v 1.882730 2.620229 3.464711
v 2.252491 2.773388 3.464711
v 2.405650 3.143149 3.464711
vt 0.341353 0.904543
vt 0.341353 0.908575
vt 0.292845 0.908575
vt 0.292845 0.904542
vt 0.341353 0.912607
vt 0.292845 0.912607
vt 0.341353 0.916639
vt 0.292845 0.916639
vt 0.341353 0.920671
vt 0.292845 0.920671
vt 0.341353 0.924703
vt 0.292845 0.924704
vt 0.341353 0.928736
vt 0.292845 0.928736
vt 0.341353 0.932768
vt 0.292845 0.932768
vt 0.341353 0.900510
vt 0.292845 0.900510
vt 0.413308 0.926982
vt 0.400776 0.935620
vt 0.385808 0.932866
vt 0.377170 0.920334
vt 0.379924 0.905366
vt 0.392455 0.896728
vt 0.407424 0.899482
vt 0.416061 0.912014
vt 0.387808 0.906518
vt 0.397137 0.903236
vt 0.406053 0.907511
vt 0.409334 0.916839
vt 0.405059 0.925756
vt 0.395731 0.929037
vt 0.386815 0.924762
vt 0.383533 0.915434
vt 0.277378 0.483802
vt 0.277378 0.444823
vt 0.288495 0.444823
vt 0.288495 0.483802
vt 0.227283 0.483802
vt 0.227283 0.444823
vt 0.238400 0.444823
vt 0.238400 0.483802
vt 0.238400 0.441495
vt 0.277378 0.441495
vt 0.277378 0.522781
vt 0.238400 0.522781
vt 0.462254 0.996282
vt 0.462254 0.979841
vt 0.491945 0.979841
vt 0.491945 0.996282
vt 0.462254 0.963401
vt 0.491945 0.963401
vt 0.462254 0.946960
vt 0.491945 0.946961
vt 0.462254 0.930520
vt 0.491945 0.930520
vt 0.462254 0.914079
vt 0.491945 0.914079
vt 0.462254 0.897639
vt 0.491945 0.897639
vt 0.529674 0.971240
vt 0.534127 0.945631
vt 0.555384 0.930671
vt 0.580993 0.935123
vt 0.595953 0.956380
vt 0.591500 0.981990
vt 0.570243 0.996950
vt 0.544634 0.992497
vt 0.591633 0.982172
vt 0.570277 0.996989
vt 0.544698 0.992365
vt 0.529881 0.971008
vt 0.534505 0.945429
vt 0.555862 0.930612
vt 0.581441 0.935237
vt 0.596258 0.956593
vt 0.407422 0.597705
vt 0.407422 0.590809
vt 0.477070 0.590809
vt 0.477070 0.597705
vt 0.407422 0.583913
vt 0.477070 0.583913
vt 0.407422 0.577018
vt 0.477070 0.577018
vt 0.407422 0.570122
vt 0.477070 0.570122
vt 0.407422 0.563226
vt 0.477070 0.563226
vt 0.407422 0.618392
vt 0.407422 0.611496
vt 0.477070 0.611496
vt 0.477070 0.618392
vt 0.407422 0.604600
vt 0.477070 0.604601
vt 0.506604 0.648581
vt 0.501575 0.634554
vt 0.507937 0.621080
vt 0.521964 0.616050
vt 0.535439 0.622413
vt 0.540468 0.636439
vt 0.534106 0.649914
vt 0.520079 0.654944
vt 0.277378 0.483802
vt 0.288495 0.483802
vt 0.288495 0.444823
vt 0.277378 0.444823
vt 0.227283 0.483802
vt 0.238400 0.483802
vt 0.238400 0.444823
vt 0.227283 0.444823
vt 0.277378 0.441495
vt 0.238400 0.441495
vt 0.238400 0.522781
vt 0.277378 0.522781
vt 0.462254 0.996282
vt 0.491945 0.996282
vt 0.491945 0.979841
vt 0.462254 0.979841
vt 0.491945 0.963401
vt 0.462254 0.963401
vt 0.491945 0.946961
vt 0.462254 0.946960
vt 0.491945 0.930520
vt 0.462254 0.930520
vt 0.491945 0.914079
vt 0.462254 0.914079
vt 0.491945 0.897639
vt 0.462254 0.897639
vt 0.529674 0.971240
vt 0.544634 0.992497
vt 0.570243 0.996950
vt 0.591500 0.981990
vt 0.595953 0.956380
vt 0.580993 0.935123
vt 0.555384 0.930671
vt 0.534127 0.945631
vt 0.591633 0.982172
vt 0.596258 0.956593
vt 0.581441 0.935237
vt 0.555862 0.930612
vt 0.534505 0.945429
vt 0.529881 0.971008
vt 0.544698 0.992365
vt 0.570277 0.996989
vt 0.407422 0.597705
vt 0.477070 0.597705
vt 0.477070 0.590809
vt 0.407422 0.590809
vt 0.477070 0.583913
vt 0.407422 0.583913
vt 0.477070 0.577018
vt 0.407422 0.577018
vt 0.477070 0.570122
vt 0.407422 0.570122
vt 0.477070 0.563226
vt 0.407422 0.563226
vt 0.407422 0.618392
vt 0.477070 0.618392
vt 0.477070 0.611496
vt 0.407422 0.611496
vt 0.477070 0.604601
vt 0.407422 0.604600
vt 0.506604 0.648581
vt 0.520079 0.654944
vt 0.534106 0.649914
vt 0.540468 0.636439
vt 0.535439 0.622413
vt 0.521964 0.616050
vt 0.507937 0.621080
vt 0.501575 0.634554
vt 0.341353 0.904543
vt 0.341353 0.908575
vt 0.292845 0.908575
vt 0.292845 0.904542
vt 0.341353 0.912607
vt 0.292845 0.912607
vt 0.341353 0.916639
vt 0.292845 0.916639
vt 0.341353 0.920671
vt 0.292845 0.920671
vt 0.341353 0.924703
vt 0.292845 0.924704
vt 0.341353 0.928736
vt 0.292845 0.928736
vt 0.341353 0.932768
vt 0.292845 0.932768
vt 0.341353 0.900510
vt 0.292845 0.900510
vt 0.413308 0.926982
vt 0.400776 0.935620
vt 0.385808 0.932866
vt 0.377170 0.920334
vt 0.379924 0.905366
vt 0.392455 0.896728
vt 0.407424 0.899482
vt 0.416061 0.912014
vt 0.387808 0.906518
vt 0.397137 0.903236
vt 0.406053 0.907511
vt 0.409334 0.916839
vt 0.405059 0.925756
vt 0.395731 0.929037
vt 0.386815 0.924762
vt 0.383533 0.915434
vn 0.382439 0.923291 -0.035705
vn 0.382439 0.923291 -0.035705
vn 0.382439 0.923291 -0.035705
vn 0.382439 0.923291 -0.035705
vn -0.382439 0.923291 -0.035705
vn -0.382439 0.923291 -0.035705
vn -0.382439 0.923291 -0.035705
vn -0.382439 0.923291 -0.035705
vn -0.923290 0.382440 -0.035705
vn -0.923290 0.382440 -0.035705
vn -0.923290 0.382440 -0.035705
vn -0.923290 0.382440 -0.035705
vn -0.923290 -0.382440 -0.035705
vn -0.923290 -0.382440 -0.035705
vn -0.923290 -0.382440 -0.035705
vn -0.923290 -0.382440 -0.035705
vn -0.382439 -0.923291 -0.035705
vn -0.382439 -0.923291 -0.035705
vn -0.382439 -0.923291 -0.035705
vn -0.382439 -0.923291 -0.035705
vn 0.382439 -0.923291 -0.035705
vn 0.382439 -0.923291 -0.035705
vn 0.382439 -0.923291 -0.035705
vn 0.382439 -0.923291 -0.035705
vn 0.923291 -0.382439 -0.035705
vn 0.923291 -0.382439 -0.035705
vn 0.923291 -0.382439 -0.035705
vn 0.923291 -0.382439 -0.035705
vn 0.923291 0.382439 -0.035705
vn 0.923291 0.382439 -0.035705
vn 0.923291 0.382439 -0.035705
vn 0.923291 0.382439 -0.035705
vn 0.000000 -0.000000 -1.000000
vn 0.000000 -0.000000 -1.000000
vn 0.000000 -0.000000 -1.000000
vn 0.000000 -0.000000 -1.000000
vn 0.000000 -0.000000 -1.000000
vn 0.000000 -0.000000 -1.000000
vn 0.000000 -0.000000 -1.000000
vn 0.000000 -0.000000 -1.000000
vn 0.000000 0.000000 1.000000
vn 0.000000 0.000000 1.000000
vn 0.000000 0.000000 1.000000
vn 0.000000 0.000000 1.000000
vn 0.000000 0.000000 1.000000
vn 0.000000 0.000000 1.000000
vn 0.000000 0.000000 1.000000
vn 0.000000 0.000000 1.000000
vn 0.000000 0.000000 -1.000000
vn 0.000000 0.000000 -1.000000
vn 0.000000 0.000000 -1.000000
vn 0.000000 0.000000 -1.000000
vn 0.000000 0.000000 1.000000
vn 0.000000 0.000000 1.000000
vn 0.000000 0.000000 1.000000
vn 0.000000 0.000000 1.000000
vn -1.000000 0.000000 0.000000
vn -1.000000 0.000000 0.000000
vn -1.000000 0.000000 0.000000
vn -1.000000 0.000000 0.000000
vn 0.000000 1.000000 0.000000
vn 0.000000 1.000000 0.000000
vn 0.000000 1.000000 0.000000
vn 0.000000 1.000000 0.000000
vn 0.000000 -1.000000 0.000000
vn 0.000000 -1.000000 0.000000
vn 0.000000 -1.000000 0.000000
vn 0.000000 -1.000000 0.000000
vn -0.923880 0.382684 0.000000
vn -0.923880 0.382684 0.000000
vn -0.923880 0.382684 0.000000
vn -0.923880 0.382684 0.000000
vn -0.923879 -0.382684 0.000000
vn -0.923879 -0.382684 0.000000
vn -0.923879 -0.382684 0.000000
vn -0.923879 -0.382684 0.000000
vn -0.382684 -0.923880 0.000000
vn -0.382684 -0.923880 0.000000
vn -0.382684 -0.923880 0.000000
vn -0.382684 -0.923880 0.000000
vn 0.382683 -0.923880 0.000000
vn 0.382683 -0.923880 0.000000
vn 0.382683 -0.923880 0.000000
vn 0.382683 -0.923880 0.000000
vn 0.923880 -0.382683 0.000000
vn 0.923880 -0.382683 0.000000
vn 0.923880 -0.382683 0.000000
vn 0.923880 -0.382683 0.000000
vn 0.923879 0.382684 0.000000
vn 0.923879 0.382684 0.000000
vn 0.923879 0.382684 0.000000
vn 0.923879 0.382684 0.000000
vn -0.000000 0.000000 -1.000000
vn -0.000000 0.000000 -1.000000
vn -0.000000 0.000000 -1.000000
vn -0.000000 0.000000 -1.000000
vn -0.000000 0.000000 -1.000000
vn -0.000000 0.000000 -1.000000
vn -0.000000 0.000000 -1.000000
vn -0.000000 0.000000 -1.000000
vn 0.000000 -0.000000 1.000000
vn 0.000000 -0.000000 1.000000
vn 0.000000 -0.000000 1.000000
vn 0.000000 -0.000000 1.000000
vn 0.000000 -0.000000 1.000000
vn 0.000000 -0.000000 1.000000
vn 0.000000 -0.000000 1.000000
vn 0.000000 -0.000000 1.000000
vn 0.382587 0.923651 -0.022266
vn 0.382587 0.923651 -0.022266
vn 0.382587 0.923651 -0.022266
vn 0.382587 0.923651 -0.022266
vn -0.382588 0.923651 -0.022266
vn -0.382588 0.923651 -0.022266
vn -0.382588 0.923651 -0.022266
vn -0.382588 0.923651 -0.022266
vn -0.923651 0.382588 -0.022266
vn -0.923651 0.382588 -0.022266
vn -0.923651 0.382588 -0.022266
vn -0.923651 0.382588 -0.022266
vn -0.923651 -0.382589 -0.022266
vn -0.923651 -0.382589 -0.022266
vn -0.923651 -0.382589 -0.022266
vn -0.923651 -0.382589 -0.022266
vn -0.382589 -0.923650 -0.022266
vn -0.382589 -0.923650 -0.022266
vn -0.382589 -0.923650 -0.022266
vn -0.382589 -0.923650 -0.022266
vn 0.382589 -0.923651 -0.022267
vn 0.382589 -0.923651 -0.022267
vn 0.382589 -0.923651 -0.022267
vn 0.382589 -0.923651 -0.022267
vn 0.923650 -0.382589 -0.022266
vn 0.923650 -0.382589 -0.022266
vn 0.923650 -0.382589 -0.022266
vn 0.923650 -0.382589 -0.022266
vn 0.923651 0.382588 -0.022266
vn 0.923651 0.382588 -0.022266
vn 0.923651 0.382588 -0.022266
vn 0.923651 0.382588 -0.022266
vn 0.000001 -0.000000 1.000000
vn 0.000001 -0.000000 1.000000
vn 0.000001 -0.000000 1.000000
vn 0.000001 -0.000000 1.000000
vn 0.000001 -0.000000 1.000000
vn 0.000001 -0.000000 1.000000
vn 0.000001 -0.000000 1.000000
vn 0.000001 -0.000000 1.000000
vn 0.000001 -0.000000 -1.000000
vn 0.000001 -0.000000 -1.000000
vn 0.000001 -0.000000 -1.000000
vn 0.000001 -0.000000 -1.000000
vn -0.000001 0.000000 1.000000
vn -0.000001 0.000000 1.000000
vn -0.000001 0.000000 1.000000
vn -0.000001 0.000000 1.000000
vn 1.000000 0.000000 0.000000
vn 1.000000 0.000000 0.000000
vn 1.000000 0.000000 0.000000
vn 1.000000 0.000000 0.000000
vn 0.000000 1.000000 0.000000
vn 0.000000 1.000000 0.000000
vn 0.000000 1.000000 0.000000
vn 0.000000 1.000000 0.000000
vn 0.000000 -1.000000 0.000000
vn 0.000000 -1.000000 0.000000
vn 0.000000 -1.000000 0.000000
vn 0.000000 -1.000000 0.000000
vn 0.923879 0.382684 0.000000
vn 0.923879 0.382684 0.000000
vn 0.923879 0.382684 0.000000
vn 0.923879 0.382684 0.000000
vn 0.923879 -0.382684 0.000000
vn 0.923879 -0.382684 0.000000
vn 0.923879 -0.382684 0.000000
vn 0.923879 -0.382684 0.000000
vn 0.382684 -0.923880 0.000000
vn 0.382684 -0.923880 0.000000
vn 0.382684 -0.923880 0.000000
vn 0.382684 -0.923880 0.000000
vn -0.382683 -0.923880 0.000000
vn -0.382683 -0.923880 0.000000
vn -0.382683 -0.923880 0.000000
vn -0.382683 -0.923880 0.000000
vn -0.923880 -0.382683 0.000000
vn -0.923880 -0.382683 0.000000
vn -0.923880 -0.382683 0.000000
vn -0.923880 -0.382683 0.000000
vn -0.923880 0.382684 0.000000
vn -0.923880 0.382684 0.000000
vn -0.923880 0.382684 0.000000
vn -0.923880 0.382684 0.000000
vn 0.000000 0.000000 -1.000000
vn 0.000000 0.000000 -1.000000
vn 0.000000 0.000000 -1.000000
vn 0.000000 0.000000 -1.000000
vn 0.000000 0.000000 -1.000000
vn 0.000000 0.000000 -1.000000
vn 0.000000 0.000000 -1.000000
vn 0.000000 0.000000 -1.000000
vn -0.000000 0.000000 1.000000
vn -0.000000 0.000000 1.000000
vn -0.000000 0.000000 1.000000
vn -0.000000 0.000000 1.000000
vn -0.000000 0.000000 1.000000
vn -0.000000 0.000000 1.000000
vn -0.000000 0.000000 1.000000
vn -0.000000 0.000000 1.000000
vn -0.382497 0.923431 -0.031160
vn -0.382497 0.923431 -0.031160
vn -0.382497 0.923431 -0.031160
vn -0.382497 0.923431 -0.031160
vn 0.382499 0.923430 -0.031160
vn 0.382499 0.923430 -0.031160
vn 0.382499 0.923430 -0.031160
vn 0.382499 0.923430 -0.031160
vn 0.923431 0.382498 -0.031160
vn 0.923431 0.382498 -0.031160
vn 0.923431 0.382498 -0.031160
vn 0.923431 0.382498 -0.031160
vn 0.923431 -0.382498 -0.031160
vn 0.923431 -0.382498 -0.031160
vn 0.923431 -0.382498 -0.031160
vn 0.923431 -0.382498 -0.031160
vn 0.382498 -0.923431 -0.031160
vn 0.382498 -0.923431 -0.031160
vn 0.382498 -0.923431 -0.031160
vn 0.382498 -0.923431 -0.031160
vn -0.382496 -0.923432 -0.031160
vn -0.382496 -0.923432 -0.031160
vn -0.382496 -0.923432 -0.031160
vn -0.382496 -0.923432 -0.031160
vn -0.923431 -0.382497 -0.031160
vn -0.923431 -0.382497 -0.031160
vn -0.923431 -0.382497 -0.031160
vn -0.923431 -0.382497 -0.031160
vn -0.923431 0.382498 -0.031160
vn -0.923431 0.382498 -0.031160
vn -0.923431 0.382498 -0.031160
vn -0.923431 0.382498 -0.031160
vn -0.000002 -0.000000 1.000000
vn -0.000002 -0.000000 1.000000
vn -0.000002 -0.000000 1.000000
vn -0.000002 -0.000000 1.000000
vn -0.000002 -0.000000 1.000000
vn -0.000002 -0.000000 1.000000
vn -0.000002 -0.000000 1.000000
vn -0.000002 -0.000000 1.000000
vn 0.382554 0.923567 -0.025998
vn 0.382554 0.923567 -0.025998
vn 0.382554 0.923567 -0.025998
vn 0.382554 0.923567 -0.025998
vn -0.382554 0.923567 -0.025999
vn -0.382554 0.923567 -0.025999
vn -0.382554 0.923567 -0.025999
vn -0.382554 0.923567 -0.025999
vn -0.923567 0.382555 -0.025998
vn -0.923567 0.382555 -0.025998
vn -0.923567 0.382555 -0.025998
vn -0.923567 0.382555 -0.025998
vn -0.923567 -0.382554 -0.025999
vn -0.923567 -0.382554 -0.025999
vn -0.923567 -0.382554 -0.025999
vn -0.923567 -0.382554 -0.025999
vn -0.382554 -0.923567 -0.025998
vn -0.382554 -0.923567 -0.025998
vn -0.382554 -0.923567 -0.025998
vn -0.382554 -0.923567 -0.025998
vn 0.382554 -0.923567 -0.025999
vn 0.382554 -0.923567 -0.025999
vn 0.382554 -0.923567 -0.025999
vn 0.382554 -0.923567 -0.025999
vn 0.923568 -0.382553 -0.025998
vn 0.923568 -0.382553 -0.025998
vn 0.923568 -0.382553 -0.025998
vn 0.923568 -0.382553 -0.025998
vn 0.923567 0.382554 -0.025998
vn 0.923567 0.382554 -0.025998
vn 0.923567 0.382554 -0.025998
vn 0.923567 0.382554 -0.025998
vn 0.000000 -0.000000 -1.000000
vn 0.000000 -0.000000 -1.000000
vn 0.000000 -0.000000 -1.000000
vn 0.000000 -0.000000 -1.000000
vn 0.000000 -0.000000 -1.000000
vn 0.000000 -0.000000 -1.000000
vn 0.000000 -0.000000 -1.000000
vn 0.000000 -0.000000 -1.000000
vn 0.000000 0.000000 1.000000
vn 0.000000 0.000000 1.000000
vn 0.000000 0.000000 1.000000
vn 0.000000 0.000000 1.000000
vn 0.000000 0.000000 1.000000
vn 0.000000 0.000000 1.000000
vn 0.000000 0.000000 1.000000
vn 0.000000 0.000000 1.000000
s off
g polySurface354
f 1/1/1 2/2/2 10/3/3 9/4/4
f 2/2/5 3/5/6 11/6/7 10/3/8
f 3/5/9 4/7/10 12/8/11 11/6/12
f 4/7/13 5/9/14 13/10/15 12/8/16
f 5/9/17 6/11/18 14/12/19 13/10/20
f 6/11/21 7/13/22 15/14/23 14/12/24
f 7/13/25 8/15/26 16/16/27 15/14/28
f 8/17/29 1/1/30 9/4/31 16/18/32
f 1/19/33 8/20/34 7/21/35 6/22/36 5/23/37 4/24/38 3/25/39 2/26/40
f 9/27/41 10/28/42 11/29/43 12/30/44 13/31/45 14/32/46 15/33/47 16/34/48
f 17/35/49 18/36/50 20/37/51 19/38/52
f 21/39/53 22/40/54 24/41/55 23/42/56
f 23/42/57 24/41/58 18/36/59 17/35/60
f 18/36/61 24/41/62 22/43/63 20/44/64
f 23/42/65 17/35/66 19/45/67 21/46/68
f 27/47/69 28/48/70 36/49/71 35/50/72
f 28/48/73 29/51/74 37/52/75 36/49/76
f 29/51/77 30/53/78 38/54/79 37/52/80
f 30/53/81 31/55/82 39/56/83 38/54/84
f 31/55/85 32/57/86 40/58/87 39/56/88
f 32/57/89 25/59/90 33/60/91 40/58/92
f 25/61/93 32/62/94 31/63/95 30/64/96 29/65/97 28/66/98 27/67/99 26/68/100
f 33/69/101 34/70/102 35/71/103 36/72/104 37/73/105 38/74/106 39/75/107 40/76/108
f 41/77/109 42/78/110 50/79/111 49/80/112
f 42/78/113 43/81/114 51/82/115 50/79/116
f 43/81/117 44/83/118 52/84/119 51/82/120
f 44/83/121 45/85/122 53/86/123 52/84/124
f 45/85/125 46/87/126 54/88/127 53/86/128
f 46/89/129 47/90/130 55/91/131 54/92/132
f 47/90/133 48/93/134 56/94/135 55/91/136
f 48/93/137 41/77/138 49/80/139 56/94/140
f 49/95/141 50/96/142 51/97/143 52/98/144 53/99/145 54/100/146 55/101/147 56/102/148
f 57/103/149 60/104/150 59/105/151 58/106/152
f 61/107/153 64/108/154 63/109/155 62/110/156
f 64/108/157 57/103/158 58/106/159 63/109/160
f 58/106/161 59/111/162 62/112/163 63/109/164
f 64/108/165 61/113/166 60/114/167 57/103/168
f 65/115/169 68/116/170 67/117/171 66/118/172
f 66/118/173 67/117/174 70/119/175 69/120/176
f 69/120/177 70/119/178 72/121/179 71/122/180
f 71/122/181 72/121/182 74/123/183 73/124/184
f 73/124/185 74/123/186 76/125/187 75/126/188
f 75/126/189 76/125/190 78/127/191 77/128/192
f 77/129/193 79/130/194 65/131/195 66/132/196 69/133/197 71/134/198 73/135/199 75/136/200
f 78/137/201 76/138/202 74/139/203 72/140/204 70/141/205 67/142/206 68/143/207 80/144/208
f 81/145/209 84/146/210 83/147/211 82/148/212
f 82/148/213 83/147/214 86/149/215 85/150/216
f 85/150/217 86/149/218 88/151/219 87/152/220
f 87/152/221 88/151/222 90/153/223 89/154/224
f 89/154/225 90/153/226 92/155/227 91/156/228
f 91/157/229 92/158/230 94/159/231 93/160/232
f 93/160/233 94/159/234 96/161/235 95/162/236
f 95/162/237 96/161/238 84/146/239 81/145/240
f 84/163/241 96/164/242 94/165/243 92/166/244 90/167/245 88/168/246 86/169/247 83/170/248
f 97/171/249 98/172/250 106/173/251 105/174/252
f 98/172/253 99/175/254 107/176/255 106/173/256
f 99/175/257 100/177/258 108/178/259 107/176/260
f 100/177/261 101/179/262 109/180/263 108/178/264
f 101/179/265 102/181/266 110/182/267 109/180/268
f 102/181/269 103/183/270 111/184/271 110/182/272
f 103/183/273 104/185/274 112/186/275 111/184/276
f 104/187/277 97/171/278 105/174/279 112/188/280
f 97/189/281 104/190/282 103/191/283 102/192/284 101/193/285 100/194/286 99/195/287 98/196/288
f 105/197/289 106/198/290 107/199/291 108/200/292 109/201/293 110/202/294 111/203/295 112/204/296
