# This file uses centimeters as units for non-parametric coordinates.

g default
v 0.331376 5.122469 1.959262
v -0.000000 5.259729 1.959262
v -0.331376 5.122469 1.959262
v -0.468637 4.791092 1.959262
v -0.331376 4.459716 1.959262
v -0.000000 4.322455 1.959262
v 0.331377 4.459716 1.959262
v 0.468637 4.791092 1.959262
v 0.331376 5.122469 2.671961
v -0.000000 5.259729 2.671961
v -0.331376 5.122469 2.671961
v -0.468637 4.791092 2.671961
v -0.331376 4.459716 2.671961
v -0.000000 4.322455 2.671961
v 0.331377 4.459716 2.671961
v 0.468637 4.791092 2.671961
v 0.211258 5.002350 0.392804
v -0.000000 5.089857 0.392804
v -0.211258 5.002350 0.392804
v -0.298764 4.791092 0.392804
v -0.211258 4.579834 0.392804
v -0.000000 4.492328 0.392804
v 0.211258 4.579834 0.392804
v 0.298764 4.791092 0.392804
v 0.254145 5.045237 2.015890
v -0.000000 5.150507 2.015890
v -0.254145 5.045237 2.015890
v -0.359415 4.791092 2.015890
v -0.254145 4.536948 2.015890
v 0.000000 4.431677 2.015890
v 0.254145 4.536948 2.015890
v 0.359415 4.791092 2.015890
v -1.226248 4.196706 0.267160
v -1.214550 4.580884 0.261929
v -0.342760 4.196706 0.914107
v -0.339490 4.580883 0.902705
v -0.806051 5.310809 -0.101653
v -0.225307 5.310809 0.323606
v -1.176681 4.067953 0.244998
v -0.328905 4.067953 0.865795
v -0.770416 4.580884 -1.464899
v -1.214550 4.580884 -1.118515
v -1.226248 4.196706 -1.154619
v -0.823121 4.196706 -1.476301
v -0.806051 5.310809 -0.926172
v -0.403066 5.310809 -1.247685
v -1.176681 4.067953 -1.106476
v -0.773696 4.067953 -1.427989
v -0.000000 4.196706 0.914107
v -0.000000 4.580883 0.902705
v -0.000000 5.310809 0.323606
v 0.000000 4.067953 0.865795
v -0.000000 4.580884 -1.464898
v -0.000000 4.196706 -1.476301
v -0.000000 5.310809 -1.247685
v -0.000000 4.067952 -1.427988
v 0.342760 4.196706 0.914107
v 0.339490 4.580884 0.902705
v 0.403066 5.310809 -1.247685
v 0.806051 5.310809 -0.926172
v 0.806051 5.310810 -0.101653
v 0.225307 5.310809 0.323606
v 0.823121 4.196706 -1.476301
v 0.770416 4.580884 -1.464898
v 1.214550 4.580884 -1.118515
v 1.226248 4.196706 -1.154619
v 1.226248 4.196706 0.267160
v 1.214550 4.580884 0.261929
v 0.328905 4.067953 0.865795
v 1.176681 4.067953 0.244998
v 1.176681 4.067953 -1.106476
v 0.773696 4.067953 -1.427989
v 0.000000 5.405446 0.185708
v 0.000000 5.405446 -1.109787
v -0.332319 5.405446 -1.109787
v -0.664572 5.405446 -0.844707
v -0.664572 5.405446 -0.164909
v -0.185760 5.405445 0.185708
v 0.185761 5.405446 0.185708
v 0.664572 5.405446 -0.164909
v 0.664572 5.405446 -0.844707
v 0.332319 5.405446 -1.109787
vt 0.476455 0.597902
vt 0.476455 0.590895
vt 0.492917 0.590895
vt 0.492917 0.597902
vt 0.476455 0.583887
vt 0.492917 0.583887
vt 0.476455 0.576879
vt 0.492917 0.576879
vt 0.476455 0.569872
vt 0.492917 0.569872
vt 0.476455 0.618925
vt 0.492917 0.562864
vt 0.476455 0.611917
vt 0.492917 0.611917
vt 0.476455 0.604910
vt 0.492917 0.604910
vt 0.492917 0.618925
vt 0.476455 0.562864
vt 0.511281 0.645947
vt 0.521926 0.649764
vt 0.532151 0.644936
vt 0.535969 0.634292
vt 0.531141 0.624066
vt 0.520496 0.620248
vt 0.510270 0.625076
vt 0.506453 0.635721
vt 0.507642 0.649796
vt 0.501043 0.635822
vt 0.506258 0.621275
vt 0.520233 0.614676
vt 0.534780 0.619891
vt 0.541378 0.633865
vt 0.536163 0.648412
vt 0.522189 0.655011
vt 0.501785 0.594288
vt 0.501785 0.588217
vt 0.530561 0.588217
vt 0.530561 0.594288
vt 0.501785 0.582146
vt 0.530561 0.582146
vt 0.501785 0.576075
vt 0.530561 0.576075
vt 0.501785 0.570004
vt 0.530561 0.570004
vt 0.501785 0.563932
vt 0.530561 0.563932
vt 0.501785 0.612502
vt 0.501785 0.606430
vt 0.530561 0.606430
vt 0.530561 0.612501
vt 0.501785 0.600359
vt 0.530561 0.600359
vt 0.505239 0.470409
vt 0.535600 0.470409
vt 0.535600 0.500513
vt 0.505239 0.500513
vt 0.556159 0.532331
vt 0.641222 0.532331
vt 0.641222 0.556667
vt 0.623118 0.577868
vt 0.579739 0.577868
vt 0.556159 0.545906
vt 0.389638 0.469963
vt 0.389638 0.500356
vt 0.324804 0.500356
vt 0.324804 0.469963
vt 0.324804 0.500513
vt 0.324804 0.470304
vt 0.432047 0.470571
vt 0.432047 0.500513
vt 0.384475 0.854277
vt 0.450720 0.854277
vt 0.450720 0.864482
vt 0.432792 0.888966
vt 0.393761 0.888966
vt 0.384475 0.877328
vt 0.436010 0.500513
vt 0.436010 0.470409
vt 0.324804 0.557708
vt 0.432047 0.557708
vt 0.436010 0.557708
vt 0.505239 0.557708
vt 0.535600 0.557708
vt 0.389638 0.459778
vt 0.324804 0.459778
vt 0.324804 0.459950
vt 0.432047 0.460204
vt 0.436010 0.460320
vt 0.505239 0.460320
vt 0.432047 0.500356
vt 0.432047 0.558101
vt 0.389638 0.558101
vt 0.432047 0.469963
vt 0.432047 0.459778
vt 0.324804 0.558101
vt 0.535600 0.460320
vt 0.505239 0.470409
vt 0.505239 0.500513
vt 0.535600 0.500513
vt 0.535600 0.470409
vt 0.556159 0.532331
vt 0.556159 0.545906
vt 0.579739 0.577868
vt 0.623118 0.577868
vt 0.641222 0.556667
vt 0.641222 0.532331
vt 0.389638 0.469963
vt 0.324804 0.469963
vt 0.324804 0.500356
vt 0.389638 0.500356
vt 0.324804 0.500513
vt 0.432047 0.500513
vt 0.432047 0.470571
vt 0.324804 0.470304
vt 0.384475 0.854277
vt 0.384475 0.877328
vt 0.393761 0.888966
vt 0.432792 0.888966
vt 0.450720 0.864482
vt 0.450720 0.854277
vt 0.436010 0.500513
vt 0.436010 0.470409
vt 0.324804 0.557708
vt 0.432047 0.557708
vt 0.436010 0.557708
vt 0.505239 0.557708
vt 0.535600 0.557708
vt 0.389638 0.459778
vt 0.324804 0.459778
vt 0.432047 0.460204
vt 0.324804 0.459950
vt 0.505239 0.460320
vt 0.436010 0.460320
vt 0.389638 0.558101
vt 0.432047 0.558101
vt 0.432047 0.500356
vt 0.432047 0.469963
vt 0.432047 0.459778
vt 0.324804 0.558101
vt 0.535600 0.460320
vt 0.652672 0.532331
vt 0.652672 0.561920
vt 0.630419 0.589811
vt 0.573353 0.589811
vt 0.542333 0.547764
vt 0.542333 0.532331
vt 0.542333 0.532331
vt 0.542333 0.547764
vt 0.573353 0.589811
vt 0.630419 0.589811
vt 0.652672 0.561920
vt 0.652672 0.532331
vn 0.382683 0.923880 0.000000
vn 0.382683 0.923880 0.000000
vn 0.382683 0.923880 0.000000
vn 0.382683 0.923880 0.000000
vn -0.382683 0.923880 -0.000000
vn -0.382683 0.923880 -0.000000
vn -0.382683 0.923880 -0.000000
vn -0.382683 0.923880 -0.000000
vn -0.923880 0.382683 0.000000
vn -0.923880 0.382683 0.000000
vn -0.923880 0.382683 0.000000
vn -0.923880 0.382683 0.000000
vn -0.923880 -0.382684 0.000000
vn -0.923880 -0.382684 0.000000
vn -0.923880 -0.382684 0.000000
vn -0.923880 -0.382684 0.000000
vn -0.382683 -0.923880 0.000000
vn -0.382683 -0.923880 0.000000
vn -0.382683 -0.923880 0.000000
vn -0.382683 -0.923880 0.000000
vn 0.382683 -0.923880 0.000000
vn 0.382683 -0.923880 0.000000
vn 0.382683 -0.923880 0.000000
vn 0.382683 -0.923880 0.000000
vn 0.923880 -0.382684 0.000000
vn 0.923880 -0.382684 0.000000
vn 0.923880 -0.382684 0.000000
vn 0.923880 -0.382684 0.000000
vn 0.923880 0.382684 0.000000
vn 0.923880 0.382684 0.000000
vn 0.923880 0.382684 0.000000
vn 0.923880 0.382684 0.000000
vn 0.000000 -0.000000 -1.000000
vn 0.000000 -0.000000 -1.000000
vn 0.000000 -0.000000 -1.000000
vn 0.000000 -0.000000 -1.000000
vn 0.000000 -0.000000 -1.000000
vn 0.000000 -0.000000 -1.000000
vn 0.000000 -0.000000 -1.000000
vn 0.000000 -0.000000 -1.000000
vn -0.000000 -0.000000 1.000000
vn -0.000000 -0.000000 1.000000
vn -0.000000 -0.000000 1.000000
vn -0.000000 -0.000000 1.000000
vn -0.000000 -0.000000 1.000000
vn -0.000000 -0.000000 1.000000
vn -0.000000 -0.000000 1.000000
vn -0.000000 -0.000000 1.000000
vn 0.382456 0.923329 -0.034503
vn 0.382456 0.923329 -0.034503
vn 0.382456 0.923329 -0.034503
vn 0.382456 0.923329 -0.034503
vn -0.382457 0.923329 -0.034502
vn -0.382457 0.923329 -0.034502
vn -0.382457 0.923329 -0.034502
vn -0.382457 0.923329 -0.034502
vn -0.923330 0.382455 -0.034503
vn -0.923330 0.382455 -0.034503
vn -0.923330 0.382455 -0.034503
vn -0.923330 0.382455 -0.034503
vn -0.923329 -0.382456 -0.034503
vn -0.923329 -0.382456 -0.034503
vn -0.923329 -0.382456 -0.034503
vn -0.923329 -0.382456 -0.034503
vn -0.382456 -0.923329 -0.034503
vn -0.382456 -0.923329 -0.034503
vn -0.382456 -0.923329 -0.034503
vn -0.382456 -0.923329 -0.034503
vn 0.382456 -0.923329 -0.034503
vn 0.382456 -0.923329 -0.034503
vn 0.382456 -0.923329 -0.034503
vn 0.382456 -0.923329 -0.034503
vn 0.923329 -0.382455 -0.034503
vn 0.923329 -0.382455 -0.034503
vn 0.923329 -0.382455 -0.034503
vn 0.923329 -0.382455 -0.034503
vn 0.923330 0.382456 -0.034503
vn 0.923330 0.382456 -0.034503
vn 0.923330 0.382456 -0.034503
vn 0.923330 0.382456 -0.034503
vn 0.000000 0.029667 0.999560
vn 0.000000 0.029667 0.999560
vn -0.000000 0.343064 0.939312
vn -0.000000 0.343064 0.939312
vn -0.000000 1.000000 0.000000
vn -0.000000 1.000000 0.000000
vn -0.000000 1.000000 0.000000
vn -0.000000 1.000000 0.000000
vn -0.000000 1.000000 0.000000
vn -0.000000 1.000000 0.000000
vn 0.000000 0.029668 -0.999560
vn 0.000000 0.158780 -0.987314
vn 0.000000 0.158780 -0.987314
vn 0.000000 0.029668 -0.999560
vn -0.963683 0.267049 -0.000000
vn -0.999537 0.030437 -0.000000
vn -0.999537 0.030437 -0.000000
vn -0.963683 0.267049 -0.000000
vn -0.000000 -1.000000 0.000000
vn -0.000000 -1.000000 0.000000
vn -0.000000 -1.000000 0.000000
vn -0.000000 -1.000000 0.000000
vn -0.000000 -1.000000 0.000000
vn -0.000000 -1.000000 0.000000
vn -0.558811 0.324604 0.763127
vn -0.590555 0.028963 0.806477
vn -0.590555 0.028963 0.806477
vn -0.558811 0.324604 0.763127
vn -0.872639 0.488367 -0.000000
vn -0.872639 0.488367 -0.000000
vn -0.476611 0.590937 0.650873
vn -0.476611 0.590937 0.650873
vn -0.476611 0.590937 0.650873
vn -0.000000 0.621521 0.783397
vn -0.000000 0.621521 0.783397
vn 0.000000 -0.351314 -0.936257
vn 0.000000 -0.351314 -0.936257
vn 0.000000 -0.351314 -0.936257
vn 0.000000 -0.351314 -0.936257
vn -0.933232 -0.359274 0.000000
vn -0.933232 -0.359274 0.000000
vn -0.933232 -0.359274 0.000000
vn -0.933232 -0.359274 0.000000
vn -0.554753 -0.343968 0.757586
vn -0.554753 -0.343968 0.757586
vn -0.554753 -0.343968 0.757586
vn -0.554753 -0.343968 0.757586
vn -0.591279 0.296696 -0.749907
vn -0.591279 0.296696 -0.749907
vn -0.542648 0.481485 -0.688262
vn -0.542648 0.481485 -0.688262
vn -0.616073 0.099947 -0.781322
vn -0.616073 0.099947 -0.781322
vn -0.550494 -0.470055 -0.689931
vn -0.550494 -0.470055 -0.689931
vn -0.550494 -0.470055 -0.689931
vn -0.550494 -0.470055 -0.689931
vn 0.000000 0.285222 -0.958461
vn 0.000000 0.285222 -0.958461
vn -0.000000 -0.351314 0.936258
vn -0.000000 -0.351314 0.936258
vn -0.000000 -0.351314 0.936258
vn -0.000000 -0.351314 0.936258
vn 0.000000 0.029667 0.999560
vn -0.000000 0.343064 0.939312
vn -0.000000 0.343064 0.939312
vn 0.000000 0.029667 0.999560
vn 0.000000 1.000000 -0.000000
vn 0.000000 1.000000 -0.000000
vn 0.000000 1.000000 -0.000000
vn 0.000000 1.000000 -0.000000
vn 0.000000 1.000000 -0.000000
vn 0.000000 1.000000 -0.000000
vn -0.000000 0.029668 -0.999560
vn -0.000000 0.029668 -0.999560
vn -0.000000 0.158780 -0.987314
vn -0.000000 0.158780 -0.987314
vn 0.963683 0.267049 -0.000000
vn 0.963683 0.267049 -0.000000
vn 0.999537 0.030437 -0.000000
vn 0.999537 0.030437 -0.000000
vn 0.000000 -1.000000 0.000000
vn 0.000000 -1.000000 0.000000
vn 0.000000 -1.000000 0.000000
vn 0.000000 -1.000000 0.000000
vn 0.000000 -1.000000 0.000000
vn 0.000000 -1.000000 0.000000
vn 0.558811 0.324605 0.763127
vn 0.558811 0.324605 0.763127
vn 0.590554 0.028963 0.806478
vn 0.590554 0.028963 0.806478
vn 0.872639 0.488367 0.000000
vn 0.872639 0.488367 0.000000
vn 0.476611 0.590938 0.650872
vn -0.000001 0.621521 0.783397
vn -0.000001 0.621521 0.783397
vn -0.000000 -0.351315 -0.936257
vn -0.000000 -0.351315 -0.936257
vn -0.000000 -0.351315 -0.936257
vn -0.000000 -0.351315 -0.936257
vn 0.933232 -0.359274 0.000000
vn 0.933232 -0.359274 0.000000
vn 0.933232 -0.359274 0.000000
vn 0.933232 -0.359274 0.000000
vn 0.554753 -0.343967 0.757586
vn 0.554753 -0.343967 0.757586
vn 0.554753 -0.343967 0.757586
vn 0.554753 -0.343967 0.757586
vn 0.591278 0.296696 -0.749908
vn 0.542648 0.481484 -0.688263
vn 0.542648 0.481484 -0.688263
vn 0.591278 0.296696 -0.749908
vn 0.616073 0.099947 -0.781323
vn 0.616073 0.099947 -0.781323
vn 0.550493 -0.470055 -0.689932
vn 0.550493 -0.470055 -0.689932
vn 0.550493 -0.470055 -0.689932
vn 0.550493 -0.470055 -0.689932
vn -0.000000 0.285222 -0.958461
vn -0.000000 0.285222 -0.958461
vn 0.000000 -0.351314 0.936258
vn 0.000000 -0.351314 0.936258
vn 0.000000 -0.351314 0.936258
vn 0.000000 -0.351314 0.936258
vn 0.000000 0.824512 -0.565844
vn 0.000000 0.824512 -0.565844
vn 0.000000 0.824512 -0.565844
vn 0.000000 0.824512 -0.565844
vn -0.329759 0.848779 -0.413319
vn -0.329759 0.848779 -0.413319
vn -0.329759 0.848779 -0.413319
vn -0.329759 0.848779 -0.413319
vn -0.555988 0.831191 0.000000
vn -0.555988 0.831191 0.000000
vn -0.555988 0.831191 0.000000
vn -0.555988 0.831191 0.000000
vn -0.339768 0.818086 0.463997
vn -0.339768 0.818086 0.463997
vn -0.339768 0.818086 0.463997
vn -0.339768 0.818086 0.463997
vn -0.000002 0.824513 0.565843
vn -0.000002 0.824513 0.565843
vn -0.000002 0.824513 0.565843
vn -0.000002 0.824513 0.565843
vn -0.000000 0.824511 0.565847
vn -0.000000 0.824511 0.565847
vn -0.000000 0.824511 0.565847
vn -0.000000 0.824511 0.565847
vn 0.339767 0.818085 0.463999
vn 0.339767 0.818085 0.463999
vn 0.339767 0.818085 0.463999
vn 0.339767 0.818085 0.463999
vn 0.555987 0.831191 0.000000
vn 0.555987 0.831191 0.000000
vn 0.555987 0.831191 0.000000
vn 0.555987 0.831191 0.000000
vn 0.329759 0.848779 -0.413320
vn 0.329759 0.848779 -0.413320
vn 0.329759 0.848779 -0.413320
vn 0.329759 0.848779 -0.413320
vn -0.000000 0.824511 -0.565845
vn -0.000000 0.824511 -0.565845
vn -0.000000 0.824511 -0.565845
vn -0.000000 0.824511 -0.565845
vn -0.476610 0.590937 0.650873
vn 0.476611 0.590938 0.650872
vn 0.476611 0.590938 0.650872
vn 0.476611 0.590938 0.650872
s off
g polySurface355
f 1/1/1 2/2/2 10/3/3 9/4/4
f 2/2/5 3/5/6 11/6/7 10/3/8
f 3/5/9 4/7/10 12/8/11 11/6/12
f 4/7/13 5/9/14 13/10/15 12/8/16
f 5/9/17 6/18/18 14/12/19 13/10/20
f 6/11/21 7/13/22 15/14/23 14/17/24
f 7/13/25 8/15/26 16/16/27 15/14/28
f 8/15/29 1/1/30 9/4/31 16/16/32
f 1/19/33 8/20/34 7/21/35 6/22/36 5/23/37 4/24/38 3/25/39 2/26/40
f 9/27/41 10/28/42 11/29/43 12/30/44 13/31/45 14/32/46 15/33/47 16/34/48
f 17/35/49 18/36/50 26/37/51 25/38/52
f 18/36/53 19/39/54 27/40/55 26/37/56
f 19/39/57 20/41/58 28/42/59 27/40/60
f 20/41/61 21/43/62 29/44/63 28/42/64
f 21/43/65 22/45/66 30/46/67 29/44/68
f 22/47/69 23/48/70 31/49/71 30/50/72
f 23/48/73 24/51/74 32/52/75 31/49/76
f 24/51/77 17/35/78 25/38/79 32/52/80
s 19
f 35/53/81 49/54/82 50/55/83 36/56/84
s off
f 73/57/85 74/58/86 75/59/87 76/60/88 77/61/89 78/62/90
s 21
f 44/63/91 41/64/92 53/65/93 54/66/94
s 22
f 42/67/95 43/68/96 33/69/97 34/70/98
s off
f 56/71/99 52/72/100 40/73/101 39/74/102 47/75/103 48/76/104
s 24
f 34/77/105 33/78/106 35/53/107 36/56/108
s 22
f 45/79/109 42/67/95 34/70/98 37/80/110
s off
f 37/81/111 36/56/112 38/82/113
s 19
f 36/56/84 50/55/83 51/83/114 38/82/115
s off
f 48/84/116 44/63/117 54/66/118 56/85/119
f 33/69/120 43/68/121 47/86/122 39/87/123
f 35/53/124 33/78/125 39/88/126 40/89/127
s 29
f 41/64/128 42/90/129 45/91/130 46/92/131
f 42/90/129 41/64/128 44/63/132 43/93/133
s off
f 43/93/134 44/63/135 48/84/136 47/94/137
s 21
f 55/95/138 53/65/93 41/64/92 46/92/139
s off
f 52/96/140 49/54/141 35/53/142 40/89/143
s 32
f 57/97/144 58/98/145 50/99/146 49/100/147
s off
f 73/101/148 79/102/149 80/103/150 81/104/151 82/105/152 74/106/153
s 34
f 63/107/154 54/108/155 53/109/156 64/110/157
s 35
f 65/111/158 68/112/159 67/113/160 66/114/161
s off
f 56/115/162 72/116/163 71/117/164 70/118/165 69/119/166 52/120/167
s 37
f 68/121/168 58/98/169 57/97/170 67/122/171
s 35
f 60/123/172 61/124/173 68/112/159 65/111/158
s 37
f 68/121/168 61/125/174 58/98/169
s 32
f 58/98/145 62/126/175 51/127/176 50/99/146
s off
f 72/128/177 56/129/178 54/108/179 63/107/180
f 67/113/181 70/130/182 71/131/183 66/114/184
f 57/97/185 69/132/186 70/133/187 67/122/188
s 41
f 64/110/189 59/134/190 60/135/191 65/136/192
f 65/136/192 66/137/193 63/107/194 64/110/189
s off
f 66/137/195 71/138/196 72/128/197 63/107/198
s 34
f 55/139/199 59/134/200 64/110/157 53/109/156
s off
f 52/140/201 69/132/202 57/97/203 49/100/204
f 55/141/205 46/142/206 75/59/207 74/58/208
f 46/142/209 45/143/210 76/60/211 75/59/212
f 45/143/213 37/144/214 77/61/215 76/60/216
f 37/144/217 38/145/218 78/62/219 77/61/220
f 38/145/221 51/146/222 73/57/223 78/62/224
f 51/147/225 62/148/226 79/102/227 73/101/228
f 62/148/229 61/149/230 80/103/231 79/102/232
f 61/149/233 60/150/234 81/104/235 80/103/236
f 60/150/237 59/151/238 82/105/239 81/104/240
f 59/151/241 55/152/242 74/106/243 82/105/244
s 24
f 34/77/105 36/56/108 37/81/245
s off
f 58/98/246 61/125/247 62/126/248
