# This file uses centimeters as units for non-parametric coordinates.

g default
v -2.318564 0.016942 -0.503530
v -2.318564 0.814353 -0.586617
v -2.318564 0.016942 0.503529
v -2.318564 0.814354 0.586617
v -2.428000 0.776182 -0.527955
v -2.428000 0.776183 0.527955
v -2.428000 0.058512 -0.453177
v -2.428000 0.058513 0.453176
v -2.479414 -0.246483 0.548672
v -2.647810 -0.071376 0.548672
v -2.643064 0.171518 0.548672
v -2.467957 0.339914 0.548672
v -2.225064 0.335168 0.548672
v -2.056668 0.160061 0.548672
v -2.061414 -0.082833 0.548672
v -2.236521 -0.251229 0.548672
v -2.479414 -0.246483 -0.600020
v -2.647810 -0.071376 -0.600020
v -2.643064 0.171518 -0.600020
v -2.467957 0.339914 -0.600020
v -2.225064 0.335168 -0.600020
v -2.056668 0.160061 -0.600020
v -2.061414 -0.082833 -0.600020
v -2.236521 -0.251229 -0.600020
v 2.428000 0.776183 0.527955
v 2.428000 0.776182 -0.527955
v 2.428000 0.058512 -0.453177
v 2.428000 0.058513 0.453176
v 2.318564 0.814354 0.586617
v 2.318564 0.814353 -0.586617
v 2.318564 0.016942 -0.503530
v 2.318564 0.016942 0.503529
v 2.479414 -0.246483 0.548672
v 2.647811 -0.071376 0.548672
v 2.647811 -0.071376 -0.600020
v 2.479414 -0.246483 -0.600020
v 2.643064 0.171518 0.548672
v 2.643064 0.171518 -0.600020
v 2.467957 0.339914 0.548672
v 2.467957 0.339914 -0.600020
v 2.225064 0.335168 0.548672
v 2.225064 0.335168 -0.600020
v 2.056668 0.160061 0.548672
v 2.056668 0.160061 -0.600020
v 2.061414 -0.082833 0.548672
v 2.061414 -0.082833 -0.600020
v 2.236521 -0.251229 0.548672
v 2.236521 -0.251229 -0.600020
v -1.027472 4.012236 0.301480
v 0.000000 4.012237 -0.925305
v -0.938256 4.012236 -0.630296
v -0.872161 4.207082 -0.632988
v -0.000000 4.251104 -0.632988
v -0.000000 4.154855 -0.897918
v -0.955092 4.323930 0.233238
v 0.000000 4.367951 0.233238
v -0.730919 4.012236 -0.925305
v -0.903595 4.012236 -0.786706
v -0.679429 4.128554 -0.897918
v -0.841772 4.167814 -0.765466
v -0.929575 3.976548 0.323870
v 0.000000 3.976548 0.323870
v 0.000000 4.305086 0.262453
v -0.864091 4.261064 0.262453
v 0.872161 4.207082 -0.632988
v 0.955092 4.323930 0.233238
v 0.841772 4.167815 -0.765466
v 0.903595 4.012237 -0.786706
v 0.938256 4.012236 -0.630296
v 0.730919 4.012236 -0.925305
v 0.679429 4.128554 -0.897918
v 1.027472 4.012235 0.301480
v 0.929575 3.976548 0.323870
v 0.864091 4.261064 0.262453
vt 0.665541 0.913416
vt 0.664714 0.999581
vt 0.775243 0.913435
vt 0.783114 0.996732
vt 0.770476 0.993535
vt 0.670283 0.993518
vt 0.677390 0.918334
vt 0.763392 0.918348
vt 0.776040 0.999600
vt 0.657644 0.996711
vt 0.339064 0.898316
vt 0.339064 0.902808
vt 0.272397 0.902808
vt 0.272397 0.898316
vt 0.339064 0.907301
vt 0.272397 0.907301
vt 0.339064 0.911793
vt 0.272397 0.911793
vt 0.339064 0.916286
vt 0.272397 0.916286
vt 0.339064 0.920778
vt 0.272397 0.920778
vt 0.339064 0.925270
vt 0.272397 0.925270
vt 0.339064 0.929763
vt 0.272397 0.929763
vt 0.339064 0.934255
vt 0.272397 0.934255
vt 0.397369 0.934861
vt 0.383885 0.930304
vt 0.377572 0.917547
vt 0.382129 0.904062
vt 0.394887 0.897750
vt 0.408371 0.902307
vt 0.414684 0.915064
vt 0.410127 0.928548
vt 0.380433 0.906267
vt 0.392104 0.898118
vt 0.406118 0.900609
vt 0.414266 0.912280
vt 0.411775 0.926294
vt 0.400105 0.934442
vt 0.386091 0.931951
vt 0.377943 0.920281
vt 0.770476 0.993535
vt 0.670283 0.993518
vt 0.677390 0.918334
vt 0.763392 0.918348
vt 0.776040 0.999600
vt 0.664714 0.999581
vt 0.657644 0.996711
vt 0.665541 0.913416
vt 0.775243 0.913435
vt 0.783114 0.996732
vt 0.339064 0.898316
vt 0.339064 0.902808
vt 0.272397 0.902808
vt 0.272397 0.898316
vt 0.339064 0.907301
vt 0.272397 0.907301
vt 0.339064 0.911793
vt 0.272397 0.911793
vt 0.339064 0.916286
vt 0.272397 0.916286
vt 0.339064 0.920778
vt 0.272397 0.920778
vt 0.339064 0.925270
vt 0.272397 0.925270
vt 0.339064 0.929763
vt 0.272397 0.929763
vt 0.339064 0.934255
vt 0.272397 0.934255
vt 0.397369 0.934861
vt 0.383885 0.930304
vt 0.377572 0.917547
vt 0.382129 0.904062
vt 0.394887 0.897750
vt 0.408371 0.902307
vt 0.414684 0.915064
vt 0.410127 0.928548
vt 0.380433 0.906267
vt 0.392104 0.898118
vt 0.406118 0.900609
vt 0.414266 0.912280
vt 0.411775 0.926294
vt 0.400105 0.934442
vt 0.386091 0.931951
vt 0.377943 0.920281
vt 0.352238 0.751445
vt 0.415100 0.742789
vt 0.415100 0.820416
vt 0.351037 0.820416
vt 0.341896 0.753400
vt 0.334875 0.747939
vt 0.346849 0.740276
vt 0.324113 0.820416
vt 0.324495 0.764271
vt 0.330691 0.765501
vt 0.330524 0.820416
vt 0.415100 0.720609
vt 0.005711 0.958209
vt 0.084663 0.958357
vt 0.084634 0.978742
vt 0.005774 0.978568
vt 0.544711 0.892040
vt 0.544711 0.915119
vt 0.536164 0.915119
vt 0.536164 0.892037
vt 0.544711 0.922505
vt 0.536164 0.922505
vt 0.352238 0.751445
vt 0.351037 0.820416
vt 0.415100 0.820416
vt 0.415100 0.742789
vt 0.341896 0.753400
vt 0.346849 0.740276
vt 0.334875 0.747939
vt 0.324113 0.820416
vt 0.330524 0.820416
vt 0.330691 0.765501
vt 0.324495 0.764271
vt 0.415100 0.720609
vt 0.005711 0.958209
vt 0.005774 0.978568
vt 0.084634 0.978742
vt 0.084663 0.958357
vt 0.544711 0.892040
vt 0.536164 0.892037
vt 0.536164 0.915119
vt 0.544711 0.915119
vt 0.536164 0.922505
vt 0.544711 0.922505
vn -1.000000 0.000000 0.000000
vn -1.000000 0.000000 0.000000
vn -1.000000 0.000000 0.000000
vn -1.000000 0.000000 0.000000
vn -0.329339 0.944212 -0.000001
vn -0.329339 0.944212 -0.000001
vn -0.329339 0.944212 -0.000001
vn -0.329339 0.944212 -0.000001
vn -0.445066 -0.092805 -0.890676
vn -0.445066 -0.092805 -0.890676
vn -0.445066 -0.092805 -0.890676
vn -0.445066 -0.092805 -0.890676
vn -0.445066 -0.092805 0.890676
vn -0.445066 -0.092805 0.890676
vn -0.445066 -0.092805 0.890676
vn -0.445066 -0.092805 0.890676
vn -0.720785 -0.693159 0.000000
vn -0.720785 -0.693159 0.000000
vn -0.720785 -0.693159 0.000000
vn -0.720785 -0.693159 0.000000
vn -0.999809 0.019535 0.000000
vn -0.999809 0.019535 0.000000
vn -0.999809 0.019535 0.000000
vn -0.999809 0.019535 0.000000
vn -0.693159 0.720785 0.000000
vn -0.693159 0.720785 0.000000
vn -0.693159 0.720785 0.000000
vn -0.693159 0.720785 0.000000
vn 0.019535 0.999809 0.000000
vn 0.019535 0.999809 0.000000
vn 0.019535 0.999809 0.000000
vn 0.019535 0.999809 0.000000
vn 0.720785 0.693158 0.000000
vn 0.720785 0.693158 0.000000
vn 0.720785 0.693158 0.000000
vn 0.720785 0.693158 0.000000
vn 0.999809 -0.019534 0.000000
vn 0.999809 -0.019534 0.000000
vn 0.999809 -0.019534 0.000000
vn 0.999809 -0.019534 0.000000
vn 0.693159 -0.720785 0.000000
vn 0.693159 -0.720785 0.000000
vn 0.693159 -0.720785 0.000000
vn 0.693159 -0.720785 0.000000
vn -0.019535 -0.999809 0.000000
vn -0.019535 -0.999809 0.000000
vn -0.019535 -0.999809 0.000000
vn -0.019535 -0.999809 0.000000
vn -0.000000 0.000000 1.000000
vn -0.000000 0.000000 1.000000
vn -0.000000 0.000000 1.000000
vn -0.000000 0.000000 1.000000
vn -0.000000 0.000000 1.000000
vn -0.000000 0.000000 1.000000
vn -0.000000 0.000000 1.000000
vn -0.000000 0.000000 1.000000
vn 0.000000 0.000000 -1.000000
vn 0.000000 0.000000 -1.000000
vn 0.000000 0.000000 -1.000000
vn 0.000000 0.000000 -1.000000
vn 0.000000 0.000000 -1.000000
vn 0.000000 0.000000 -1.000000
vn 0.000000 0.000000 -1.000000
vn 0.000000 0.000000 -1.000000
vn 1.000000 -0.000000 0.000000
vn 1.000000 -0.000000 0.000000
vn 1.000000 -0.000000 0.000000
vn 1.000000 -0.000000 0.000000
vn 0.329338 0.944212 -0.000001
vn 0.329338 0.944212 -0.000001
vn 0.329338 0.944212 -0.000001
vn 0.329338 0.944212 -0.000001
vn 0.445067 -0.092805 -0.890675
vn 0.445067 -0.092805 -0.890675
vn 0.445067 -0.092805 -0.890675
vn 0.445067 -0.092805 -0.890675
vn 0.445066 -0.092805 0.890676
vn 0.445066 -0.092805 0.890676
vn 0.445066 -0.092805 0.890676
vn 0.445066 -0.092805 0.890676
vn 0.720784 -0.693160 0.000000
vn 0.720784 -0.693160 0.000000
vn 0.720784 -0.693160 0.000000
vn 0.720784 -0.693160 0.000000
vn 0.999809 0.019537 0.000000
vn 0.999809 0.019537 0.000000
vn 0.999809 0.019537 0.000000
vn 0.999809 0.019537 0.000000
vn 0.693159 0.720784 0.000000
vn 0.693159 0.720784 0.000000
vn 0.693159 0.720784 0.000000
vn 0.693159 0.720784 0.000000
vn -0.019535 0.999809 0.000000
vn -0.019535 0.999809 0.000000
vn -0.019535 0.999809 0.000000
vn -0.019535 0.999809 0.000000
vn -0.720785 0.693159 0.000000
vn -0.720785 0.693159 0.000000
vn -0.720785 0.693159 0.000000
vn -0.720785 0.693159 0.000000
vn -0.999809 -0.019534 0.000000
vn -0.999809 -0.019534 0.000000
vn -0.999809 -0.019534 0.000000
vn -0.999809 -0.019534 0.000000
vn -0.693159 -0.720785 0.000000
vn -0.693159 -0.720785 0.000000
vn -0.693159 -0.720785 0.000000
vn -0.693159 -0.720785 0.000000
vn 0.019535 -0.999809 0.000000
vn 0.019535 -0.999809 0.000000
vn 0.019535 -0.999809 0.000000
vn 0.019535 -0.999809 0.000000
vn -0.000000 0.000000 1.000000
vn -0.000000 0.000000 1.000000
vn -0.000000 0.000000 1.000000
vn -0.000000 0.000000 1.000000
vn -0.000000 0.000000 1.000000
vn -0.000000 0.000000 1.000000
vn -0.000000 0.000000 1.000000
vn -0.000000 0.000000 1.000000
vn -0.000000 0.000000 -1.000000
vn -0.000000 0.000000 -1.000000
vn -0.000000 0.000000 -1.000000
vn -0.000000 0.000000 -1.000000
vn -0.000000 0.000000 -1.000000
vn -0.000000 0.000000 -1.000000
vn -0.000000 0.000000 -1.000000
vn -0.000000 0.000000 -1.000000
vn -0.044589 0.971783 -0.231625
vn -0.047682 0.989592 -0.135771
vn -0.047682 0.989592 -0.135771
vn -0.044589 0.971783 -0.231625
vn -0.905071 0.343645 -0.250511
vn -0.905071 0.343645 -0.250511
vn -0.927510 0.332381 -0.171019
vn -0.927510 0.332381 -0.171019
vn -0.003873 0.207691 -0.978187
vn -0.003873 0.207691 -0.978187
vn -0.003873 0.207691 -0.978187
vn -0.003873 0.207691 -0.978187
vn -0.972508 0.199554 -0.120025
vn -0.972508 0.199554 -0.120025
vn -0.972508 0.199554 -0.120025
vn -0.071074 0.219340 0.973056
vn -0.004834 0.196956 0.980400
vn -0.012404 0.305153 0.952223
vn -0.054218 0.284184 0.957236
vn -0.041071 0.944727 -0.325276
vn -0.041071 0.944727 -0.325276
vn -0.041071 0.944727 -0.325276
vn -0.559030 0.366030 -0.743980
vn -0.559030 0.366030 -0.743980
vn -0.559030 0.366030 -0.743980
vn -0.559030 0.366030 -0.743980
vn -0.019819 0.409519 0.912086
vn -0.078832 0.326908 0.941762
vn -0.136963 0.240641 0.960902
vn 0.044589 0.971783 -0.231625
vn 0.044589 0.971783 -0.231625
vn 0.047682 0.989592 -0.135771
vn 0.047682 0.989592 -0.135771
vn 0.905071 0.343645 -0.250507
vn 0.927511 0.332381 -0.171017
vn 0.927511 0.332381 -0.171017
vn 0.905071 0.343645 -0.250507
vn 0.003873 0.207691 -0.978187
vn 0.003873 0.207691 -0.978187
vn 0.003873 0.207691 -0.978187
vn 0.003873 0.207691 -0.978187
vn 0.943505 0.318807 -0.090339
vn 0.071074 0.219340 0.973056
vn 0.054218 0.284185 0.957235
vn 0.012404 0.305154 0.952222
vn 0.004834 0.196956 0.980401
vn 0.041071 0.944727 -0.325275
vn 0.041071 0.944727 -0.325275
vn 0.041071 0.944727 -0.325275
vn 0.559031 0.366030 -0.743980
vn 0.559031 0.366030 -0.743980
vn 0.559031 0.366030 -0.743980
vn 0.559031 0.366030 -0.743980
vn 0.019819 0.409519 0.912086
vn 0.078833 0.326909 0.941762
vn 0.136964 0.240641 0.960902
vn -0.943504 0.318808 -0.090340
vn 0.972508 0.199554 -0.120025
vn 0.972508 0.199554 -0.120025
vn 0.972508 0.199554 -0.120025
s off
g polySurface152
f 6/5/1 5/6/2 7/7/3 8/8/4
f 4/9/5 2/2/6 5/6/7 6/5/8
f 2/10/9 1/1/10 7/7/11 5/6/12
f 3/3/13 4/4/14 6/5/15 8/8/16
f 9/11/17 10/12/18 18/13/19 17/14/20
f 10/12/21 11/15/22 19/16/23 18/13/24
f 11/15/25 12/17/26 20/18/27 19/16/28
f 12/17/29 13/19/30 21/20/31 20/18/32
f 13/19/33 14/21/34 22/22/35 21/20/36
f 14/21/37 15/23/38 23/24/39 22/22/40
f 15/23/41 16/25/42 24/26/43 23/24/44
f 16/25/45 9/27/46 17/28/47 24/26/48
f 9/29/49 16/30/50 15/31/51 14/32/52 13/33/53 12/34/54 11/35/55 10/36/56
f 17/37/57 18/38/58 19/39/59 20/40/60 21/41/61 22/42/62 23/43/63 24/44/64
f 25/45/65 28/48/66 27/47/67 26/46/68
f 29/49/69 25/45/70 26/46/71 30/50/72
f 30/51/73 26/46/74 27/47/75 31/52/76
f 32/53/77 28/48/78 25/45/79 29/54/80
f 33/55/81 36/58/82 35/57/83 34/56/84
f 34/56/85 35/57/86 38/60/87 37/59/88
f 37/59/89 38/60/90 40/62/91 39/61/92
f 39/61/93 40/62/94 42/64/95 41/63/96
f 41/63/97 42/64/98 44/66/99 43/65/100
f 43/65/101 44/66/102 46/68/103 45/67/104
f 45/67/105 46/68/106 48/70/107 47/69/108
f 47/69/109 48/70/110 36/72/111 33/71/112
f 33/73/113 34/80/114 37/79/115 39/78/116 41/77/117 43/76/118 45/75/119 47/74/120
f 36/81/121 48/88/122 46/87/123 44/86/124 42/85/125 40/84/126 38/83/127 35/82/128
s 29
f 52/89/129 55/90/130 56/91/131 53/92/132
s 30
f 60/93/133 58/94/134 51/95/135 52/89/136
s off
f 50/96/137 57/97/138 59/98/139 54/99/140
f 52/89/141 49/100/142 55/90/143
s 33
f 61/101/144 62/102/145 63/103/146 64/104/147
s 29
f 59/98/148 60/93/149 52/89/129 53/92/132 54/99/150
s off
f 57/97/151 58/94/152 60/93/153 59/98/154
s 33
f 56/105/155 55/106/156 64/107/147 63/108/146
f 55/106/156 49/109/157 61/110/144 64/107/147
s 35
f 65/111/158 53/112/159 56/113/160 66/114/161
s 36
f 67/115/162 65/111/163 69/116/164 68/117/165
s off
f 50/118/166 54/119/167 71/120/168 70/121/169
s 36
f 69/116/164 65/111/163 72/122/170
s 38
f 73/123/171 74/124/172 63/125/173 62/126/174
s 35
f 71/120/175 54/119/176 53/112/159 65/111/158 67/115/177
s off
f 70/121/178 71/120/179 67/115/180 68/117/181
s 38
f 56/127/182 63/128/173 74/129/172 66/130/183
f 66/130/183 74/129/172 73/131/171 72/132/184
s 30
f 51/95/135 49/100/185 52/89/136
s off
f 72/122/186 65/111/187 66/114/188
