# This file uses centimeters as units for non-parametric coordinates.

g default
v 2.317541 3.226007 -4.730793
v 1.957463 3.375156 -4.730793
v 1.597385 3.226007 -4.730793
v 1.448236 2.865929 -4.730793
v 1.597385 2.505851 -4.730793
v 1.957463 2.356703 -4.730793
v 2.317540 2.505852 -4.730793
v 2.466689 2.865929 -4.730793
v 2.317541 3.226007 -1.521255
v 1.957463 3.375156 -1.521255
v 1.597386 3.226007 -1.521255
v 1.448237 2.865929 -1.521255
v 1.597385 2.505852 -1.521255
v 1.957463 2.356703 -1.521256
v 2.317540 2.505852 -1.521256
v 2.466689 2.865929 -1.521255
v -2.317541 3.226007 -4.730793
v -1.957463 3.375155 -4.730793
v -1.957463 3.375156 -1.521255
v -2.317541 3.226007 -1.521256
v -1.597385 3.226006 -4.730793
v -1.597386 3.226007 -1.521255
v -1.448236 2.865929 -4.730793
v -1.448236 2.865929 -1.521255
v -1.597385 2.505851 -4.730792
v -1.597385 2.505852 -1.521255
v -1.957463 2.356703 -4.730793
v -1.957463 2.356703 -1.521256
v -2.317541 2.505852 -4.730793
v -2.317540 2.505852 -1.521256
v -2.466690 2.865929 -4.730793
v -2.466689 2.865930 -1.521256
v -2.053945 3.065952 -1.578543
v -1.833280 3.065952 -1.578543
v -1.833280 3.065952 -0.848612
v -2.053945 3.065953 -0.848612
v -1.722948 2.874851 -1.578543
v -1.722948 2.874851 -0.848612
v -1.833280 2.683750 -1.578543
v -1.833280 2.683750 -0.848612
v -2.053945 2.683750 -1.578543
v -2.053945 2.683750 -0.848612
v -2.164277 2.874851 -1.578543
v -2.164277 2.874851 -0.848612
v -1.978404 2.966363 -0.482440
v -2.122000 2.807157 -0.534659
v -2.060637 2.642776 -0.668473
v -1.855678 2.637600 -0.750069
v -1.712081 2.796805 -0.697851
v -1.773444 2.961186 -0.564036
v -1.746855 2.663709 -0.193145
v -1.867602 2.500016 -0.259498
v -1.875269 2.408154 -0.437453
v -1.762190 2.479985 -0.549055
v -1.641442 2.643678 -0.482703
v -1.633775 2.735540 -0.304747
v -1.254103 1.562110 -0.611527
v -1.141618 1.649598 -0.780010
v -1.006733 1.820806 -0.745557
v -0.984334 1.904526 -0.542622
v -1.096819 1.817037 -0.374140
v -1.231703 1.645829 -0.408593
v -1.965936 2.740316 -1.256339
v -2.061960 2.686145 -1.120809
v -1.254103 1.562110 -1.408466
v -1.141618 1.649598 -1.566309
v -1.787138 2.851397 -1.217870
v -1.006733 1.820807 -1.534031
v -1.738984 2.887317 -1.045282
v -0.984334 1.904526 -1.343911
v -1.800387 2.854136 -0.908342
v -1.096820 1.817038 -1.186069
v -1.979186 2.743055 -0.946811
v -1.231704 1.645829 -1.218346
v 2.053945 3.065952 -1.578543
v 1.833280 3.065952 -1.578543
v 1.722948 2.874851 -1.578543
v 1.833280 2.683750 -1.578543
v 2.053945 2.683750 -1.578543
v 2.164277 2.874851 -1.578543
v 1.096819 1.817037 -0.374140
v 0.984334 1.904526 -0.542622
v 1.006733 1.820807 -0.745557
v 1.141618 1.649598 -0.780010
v 1.254103 1.562110 -0.611527
v 1.231703 1.645829 -0.408593
v 2.053945 3.065952 -0.848612
v 2.164277 2.874851 -0.848612
v 2.053945 2.683750 -0.848612
v 1.833280 2.683750 -0.848612
v 1.722947 2.874851 -0.848612
v 1.833280 3.065952 -0.848612
v 1.978404 2.966363 -0.482440
v 2.122000 2.807157 -0.534659
v 2.060637 2.642776 -0.668473
v 1.855678 2.637600 -0.750069
v 1.712081 2.796805 -0.697851
v 1.773445 2.961186 -0.564037
v 1.875269 2.408154 -0.437453
v 1.762190 2.479985 -0.549055
v 1.641442 2.643678 -0.482703
v 1.633775 2.735540 -0.304747
v 1.746855 2.663709 -0.193145
v 1.867602 2.500016 -0.259498
v 1.096820 1.817037 -1.186069
v 0.984335 1.904526 -1.343911
v 1.006733 1.820807 -1.534031
v 1.141618 1.649598 -1.566309
v 1.254103 1.562110 -1.408466
v 1.231704 1.645829 -1.218346
v 2.061960 2.686145 -1.120810
v 1.965936 2.740316 -1.256339
v 1.787138 2.851397 -1.217870
v 1.738984 2.887317 -1.045282
v 1.800387 2.854136 -0.908342
v 1.979186 2.743055 -0.946811
vt 0.599257 0.291981
vt 0.618206 0.291981
vt 0.618206 0.519936
vt 0.599257 0.519936
vt 0.637155 0.291981
vt 0.637155 0.519936
vt 0.656104 0.291981
vt 0.656104 0.519936
vt 0.675053 0.291981
vt 0.675053 0.519936
vt 0.694001 0.291981
vt 0.694001 0.519936
vt 0.712950 0.291981
vt 0.712950 0.519936
vt 0.731899 0.291981
vt 0.731899 0.519936
vt 0.750848 0.291981
vt 0.750848 0.519936
vt 0.552972 0.717444
vt 0.561736 0.738603
vt 0.552972 0.759762
vt 0.531813 0.768526
vt 0.510653 0.759762
vt 0.501889 0.738603
vt 0.510653 0.717444
vt 0.531813 0.708679
vt 0.216988 0.502714
vt 0.225752 0.523873
vt 0.216988 0.545032
vt 0.195828 0.553796
vt 0.174670 0.545032
vt 0.165905 0.523873
vt 0.174670 0.502714
vt 0.195828 0.493950
vt 0.599257 0.291981
vt 0.618206 0.291981
vt 0.618206 0.519936
vt 0.599257 0.519936
vt 0.637155 0.291981
vt 0.637155 0.519936
vt 0.656104 0.291981
vt 0.656104 0.519936
vt 0.675053 0.291981
vt 0.675053 0.519936
vt 0.694001 0.291981
vt 0.694001 0.519936
vt 0.712950 0.291981
vt 0.712950 0.519936
vt 0.731899 0.291981
vt 0.731899 0.519936
vt 0.750848 0.291981
vt 0.750848 0.519936
vt 0.552972 0.717444
vt 0.561736 0.738603
vt 0.552972 0.759762
vt 0.531813 0.768526
vt 0.510653 0.759762
vt 0.501889 0.738603
vt 0.510653 0.717444
vt 0.531813 0.708679
vt 0.216988 0.502714
vt 0.225752 0.523873
vt 0.216988 0.545032
vt 0.195828 0.553796
vt 0.174670 0.545032
vt 0.165905 0.523873
vt 0.174670 0.502714
vt 0.195828 0.493950
vt 0.054388 0.524861
vt 0.062574 0.524861
vt 0.062574 0.514998
vt 0.054387 0.514998
vt 0.062574 0.505135
vt 0.054387 0.505135
vt 0.062573 0.495272
vt 0.054387 0.495272
vt 0.054388 0.554449
vt 0.062574 0.554449
vt 0.062574 0.544586
vt 0.054388 0.544586
vt 0.062574 0.534723
vt 0.054388 0.534723
vt 0.064769 0.534723
vt 0.064769 0.524861
vt 0.064769 0.544586
vt 0.064769 0.554449
vt 0.064768 0.505135
vt 0.064768 0.495272
vt 0.064768 0.514998
vt 0.068115 0.534723
vt 0.068115 0.524860
vt 0.068115 0.544586
vt 0.068115 0.554449
vt 0.068114 0.505135
vt 0.068114 0.495272
vt 0.068115 0.514998
vt 0.076159 0.554449
vt 0.076159 0.544586
vt 0.076158 0.505135
vt 0.076158 0.495272
vt 0.076159 0.514997
vt 0.076159 0.524860
vt 0.076159 0.534723
vt 0.068115 0.554449
vt 0.076159 0.554449
vt 0.076159 0.544586
vt 0.068115 0.544586
vt 0.068112 0.505136
vt 0.076156 0.505134
vt 0.076155 0.495272
vt 0.068111 0.495273
vt 0.068114 0.514998
vt 0.076157 0.514997
vt 0.068115 0.524861
vt 0.076159 0.524860
vt 0.068115 0.534723
vt 0.076159 0.534723
vt 0.054388 0.524984
vt 0.054388 0.515121
vt 0.062574 0.515121
vt 0.062574 0.524984
vt 0.054388 0.505258
vt 0.062574 0.505258
vt 0.054388 0.495396
vt 0.062574 0.495396
vt 0.054387 0.554572
vt 0.054387 0.544709
vt 0.062574 0.544709
vt 0.062573 0.554572
vt 0.054387 0.534847
vt 0.062574 0.534847
vt 0.064769 0.524984
vt 0.064768 0.534847
vt 0.064768 0.544710
vt 0.064768 0.554572
vt 0.064769 0.495396
vt 0.064769 0.505258
vt 0.064769 0.515121
vt 0.068115 0.524984
vt 0.068115 0.534847
vt 0.068114 0.544710
vt 0.068114 0.554572
vt 0.068115 0.495396
vt 0.068115 0.505258
vt 0.068115 0.515121
vt 0.076158 0.544710
vt 0.076158 0.554573
vt 0.076159 0.495396
vt 0.076159 0.505258
vt 0.076159 0.515121
vt 0.076159 0.524984
vt 0.076159 0.534847
vt 0.068111 0.554572
vt 0.068112 0.544709
vt 0.076156 0.544710
vt 0.076155 0.554573
vt 0.068115 0.505258
vt 0.068115 0.495396
vt 0.076159 0.495396
vt 0.076159 0.505258
vt 0.068115 0.515121
vt 0.076159 0.515121
vt 0.068115 0.524984
vt 0.076159 0.524984
vt 0.068114 0.534846
vt 0.076157 0.534847
vn 0.382683 0.923880 -0.000000
vn 0.382683 0.923880 -0.000000
vn 0.382683 0.923880 -0.000000
vn 0.382683 0.923880 -0.000000
vn -0.382684 0.923879 -0.000000
vn -0.382684 0.923879 -0.000000
vn -0.382684 0.923879 -0.000000
vn -0.382684 0.923879 -0.000000
vn -0.923880 0.382684 0.000000
vn -0.923880 0.382684 0.000000
vn -0.923880 0.382684 0.000000
vn -0.923880 0.382684 0.000000
vn -0.923879 -0.382684 0.000000
vn -0.923879 -0.382684 0.000000
vn -0.923879 -0.382684 0.000000
vn -0.923879 -0.382684 0.000000
vn -0.382683 -0.923880 0.000000
vn -0.382683 -0.923880 0.000000
vn -0.382683 -0.923880 0.000000
vn -0.382683 -0.923880 0.000000
vn 0.382683 -0.923880 0.000000
vn 0.382683 -0.923880 0.000000
vn 0.382683 -0.923880 0.000000
vn 0.382683 -0.923880 0.000000
vn 0.923880 -0.382683 0.000000
vn 0.923880 -0.382683 0.000000
vn 0.923880 -0.382683 0.000000
vn 0.923880 -0.382683 0.000000
vn 0.923880 0.382682 -0.000000
vn 0.923880 0.382682 -0.000000
vn 0.923880 0.382682 -0.000000
vn 0.923880 0.382682 -0.000000
vn 0.000000 0.000000 -1.000000
vn 0.000000 0.000000 -1.000000
vn 0.000000 0.000000 -1.000000
vn 0.000000 0.000000 -1.000000
vn 0.000000 0.000000 -1.000000
vn 0.000000 0.000000 -1.000000
vn 0.000000 0.000000 -1.000000
vn 0.000000 0.000000 -1.000000
vn 0.000000 -0.000000 1.000000
vn 0.000000 -0.000000 1.000000
vn 0.000000 -0.000000 1.000000
vn 0.000000 -0.000000 1.000000
vn 0.000000 -0.000000 1.000000
vn 0.000000 -0.000000 1.000000
vn 0.000000 -0.000000 1.000000
vn 0.000000 -0.000000 1.000000
vn -0.382683 0.923880 -0.000000
vn -0.382683 0.923880 -0.000000
vn -0.382683 0.923880 -0.000000
vn -0.382683 0.923880 -0.000000
vn 0.382684 0.923879 -0.000000
vn 0.382684 0.923879 -0.000000
vn 0.382684 0.923879 -0.000000
vn 0.382684 0.923879 -0.000000
vn 0.923879 0.382684 -0.000000
vn 0.923879 0.382684 -0.000000
vn 0.923879 0.382684 -0.000000
vn 0.923879 0.382684 -0.000000
vn 0.923879 -0.382684 0.000000
vn 0.923879 -0.382684 0.000000
vn 0.923879 -0.382684 0.000000
vn 0.923879 -0.382684 0.000000
vn 0.382683 -0.923880 0.000000
vn 0.382683 -0.923880 0.000000
vn 0.382683 -0.923880 0.000000
vn 0.382683 -0.923880 0.000000
vn -0.382683 -0.923880 0.000000
vn -0.382683 -0.923880 0.000000
vn -0.382683 -0.923880 0.000000
vn -0.382683 -0.923880 0.000000
vn -0.923880 -0.382683 0.000000
vn -0.923880 -0.382683 0.000000
vn -0.923880 -0.382683 0.000000
vn -0.923880 -0.382683 0.000000
vn -0.923880 0.382682 -0.000000
vn -0.923880 0.382682 -0.000000
vn -0.923880 0.382682 -0.000000
vn -0.923880 0.382682 -0.000000
vn 0.000000 -0.000000 -1.000000
vn 0.000000 -0.000000 -1.000000
vn 0.000000 -0.000000 -1.000000
vn 0.000000 -0.000000 -1.000000
vn 0.000000 -0.000000 -1.000000
vn 0.000000 -0.000000 -1.000000
vn 0.000000 -0.000000 -1.000000
vn 0.000000 -0.000000 -1.000000
vn -0.000001 -0.000000 1.000000
vn -0.000001 -0.000000 1.000000
vn -0.000001 -0.000000 1.000000
vn -0.000001 -0.000000 1.000000
vn -0.000001 -0.000000 1.000000
vn -0.000001 -0.000000 1.000000
vn -0.000001 -0.000000 1.000000
vn -0.000001 -0.000000 1.000000
vn 0.000002 1.000000 -0.000000
vn 0.033633 0.988894 0.144769
vn 0.033633 0.988894 0.144769
vn 0.000002 1.000000 -0.000000
vn 0.866025 0.500001 -0.000000
vn 0.886222 0.462991 0.015802
vn 0.886222 0.462991 0.015802
vn 0.866025 0.500001 -0.000000
vn 0.866025 -0.500000 -0.000000
vn 0.841134 -0.527656 -0.118629
vn 0.841134 -0.527656 -0.118629
vn 0.866025 -0.500000 -0.000000
vn 0.000000 -1.000000 -0.000000
vn -0.035390 -0.987424 -0.154086
vn -0.035390 -0.987424 -0.154086
vn 0.000000 -1.000000 -0.000000
vn -0.866026 -0.499999 0.000000
vn -0.886008 -0.463450 -0.014297
vn -0.886008 -0.463450 -0.014297
vn -0.866026 -0.499999 0.000000
vn -0.866027 0.499998 -0.000000
vn -0.840470 0.524335 0.136686
vn -0.840470 0.524335 0.136686
vn -0.866027 0.499998 -0.000000
vn -0.739745 0.398076 0.542506
vn -0.739745 0.398076 0.542506
vn -0.886036 -0.451374 0.105835
vn -0.886036 -0.451374 0.105835
vn -0.133447 -0.881273 -0.453376
vn -0.133447 -0.881273 -0.453376
vn 0.778486 -0.474030 -0.411407
vn 0.778486 -0.474030 -0.411407
vn 0.919436 0.390137 -0.049293
vn 0.919436 0.390137 -0.049293
vn 0.138467 0.880342 0.453679
vn 0.138467 0.880342 0.453679
vn -0.364705 -0.010850 0.931060
vn -0.364705 -0.010850 0.931060
vn -0.792856 -0.537206 0.287729
vn -0.792856 -0.537206 0.287729
vn -0.444975 -0.580894 -0.681586
vn -0.444975 -0.580894 -0.681586
vn 0.428201 -0.056699 -0.901903
vn 0.428201 -0.056699 -0.901903
vn 0.826233 0.507297 -0.244926
vn 0.826233 0.507297 -0.244926
vn 0.445295 0.575505 0.685935
vn 0.445295 0.575505 0.685935
vn -0.646357 -0.310345 -0.697071
vn -0.646357 -0.310345 -0.697071
vn 0.001455 0.287208 -0.957867
vn 0.001455 0.287208 -0.957867
vn 0.686321 0.638389 -0.348458
vn 0.686321 0.638389 -0.348458
vn 0.639863 0.321323 0.698089
vn 0.639863 0.321323 0.698089
vn -0.068161 -0.239493 0.968503
vn -0.068161 -0.239493 0.968503
vn -0.726382 -0.600571 0.334190
vn -0.726382 -0.600571 0.334190
vn -0.686304 -0.331024 -0.647619
vn -0.686304 -0.331024 -0.647619
vn -0.686304 -0.331024 -0.647619
vn -0.686304 -0.331024 -0.647619
vn -0.022979 0.266985 -0.963427
vn -0.022979 0.266985 -0.963427
vn -0.022979 0.266985 -0.963427
vn -0.022979 0.266985 -0.963427
vn 0.693188 0.633481 -0.343790
vn 0.693188 0.633481 -0.343790
vn 0.693188 0.633481 -0.343790
vn 0.693188 0.633481 -0.343790
vn 0.730439 0.362085 0.579097
vn 0.730439 0.362085 0.579097
vn 0.730439 0.362085 0.579097
vn 0.730439 0.362085 0.579097
vn 0.003642 -0.246902 0.969034
vn 0.003642 -0.246902 0.969034
vn 0.003642 -0.246902 0.969034
vn 0.003642 -0.246902 0.969034
vn -0.687320 -0.588459 0.425802
vn -0.687320 -0.588459 0.425802
vn -0.687320 -0.588459 0.425802
vn -0.687320 -0.588459 0.425802
vn -0.000001 1.000000 0.000000
vn -0.000001 1.000000 0.000000
vn -0.033632 0.988894 0.144768
vn -0.033632 0.988894 0.144768
vn -0.866025 0.500001 -0.000000
vn -0.866025 0.500001 -0.000000
vn -0.886222 0.462991 0.015802
vn -0.886222 0.462991 0.015802
vn -0.866024 -0.500002 -0.000000
vn -0.866024 -0.500002 -0.000000
vn -0.841133 -0.527657 -0.118629
vn -0.841133 -0.527657 -0.118629
vn -0.000000 -1.000000 0.000000
vn -0.000000 -1.000000 0.000000
vn 0.035389 -0.987423 -0.154086
vn 0.035389 -0.987423 -0.154086
vn 0.866025 -0.500000 0.000000
vn 0.866025 -0.500000 0.000000
vn 0.886007 -0.463451 -0.014296
vn 0.886007 -0.463451 -0.014296
vn 0.866026 0.499999 -0.000000
vn 0.866026 0.499999 -0.000000
vn 0.840469 0.524336 0.136686
vn 0.840469 0.524336 0.136686
vn 0.739745 0.398076 0.542506
vn 0.739745 0.398076 0.542506
vn 0.886036 -0.451374 0.105835
vn 0.886036 -0.451374 0.105835
vn 0.133447 -0.881273 -0.453376
vn 0.133447 -0.881273 -0.453376
vn -0.778485 -0.474030 -0.411407
vn -0.778485 -0.474030 -0.411407
vn -0.919436 0.390137 -0.049293
vn -0.919436 0.390137 -0.049293
vn -0.138466 0.880343 0.453678
vn -0.138466 0.880343 0.453678
vn 0.364706 -0.010850 0.931060
vn 0.364706 -0.010850 0.931060
vn 0.792856 -0.537207 0.287729
vn 0.792856 -0.537207 0.287729
vn 0.444975 -0.580894 -0.681586
vn 0.444975 -0.580894 -0.681586
vn -0.428201 -0.056699 -0.901903
vn -0.428201 -0.056699 -0.901903
vn -0.826233 0.507297 -0.244926
vn -0.826233 0.507297 -0.244926
vn -0.445295 0.575505 0.685935
vn -0.445295 0.575505 0.685935
vn 0.646357 -0.310345 -0.697071
vn 0.646357 -0.310345 -0.697071
vn -0.001455 0.287208 -0.957867
vn -0.001455 0.287208 -0.957867
vn -0.686321 0.638389 -0.348458
vn -0.686321 0.638389 -0.348458
vn -0.639863 0.321322 0.698089
vn -0.639863 0.321322 0.698089
vn 0.068160 -0.239493 0.968503
vn 0.068160 -0.239493 0.968503
vn 0.726382 -0.600571 0.334190
vn 0.726382 -0.600571 0.334190
vn 0.686304 -0.331023 -0.647619
vn 0.686304 -0.331023 -0.647619
vn 0.686304 -0.331023 -0.647619
vn 0.686304 -0.331023 -0.647619
vn 0.022979 0.266985 -0.963427
vn 0.022979 0.266985 -0.963427
vn 0.022979 0.266985 -0.963427
vn 0.022979 0.266985 -0.963427
vn -0.693188 0.633481 -0.343790
vn -0.693188 0.633481 -0.343790
vn -0.693188 0.633481 -0.343790
vn -0.693188 0.633481 -0.343790
vn -0.730438 0.362085 0.579098
vn -0.730438 0.362085 0.579098
vn -0.730438 0.362085 0.579098
vn -0.730438 0.362085 0.579098
vn -0.003642 -0.246902 0.969034
vn -0.003642 -0.246902 0.969034
vn -0.003642 -0.246902 0.969034
vn -0.003642 -0.246902 0.969034
vn 0.687320 -0.588459 0.425802
vn 0.687320 -0.588459 0.425802
vn 0.687320 -0.588459 0.425802
vn 0.687320 -0.588459 0.425802
s off
g polySurface712
f 1/1/1 2/2/2 10/3/3 9/4/4
f 2/2/5 3/5/6 11/6/7 10/3/8
f 3/5/9 4/7/10 12/8/11 11/6/12
f 4/7/13 5/9/14 13/10/15 12/8/16
f 5/9/17 6/11/18 14/12/19 13/10/20
f 6/11/21 7/13/22 15/14/23 14/12/24
f 7/13/25 8/15/26 16/16/27 15/14/28
f 8/15/29 1/17/30 9/18/31 16/16/32
f 1/19/33 8/20/34 7/21/35 6/22/36 5/23/37 4/24/38 3/25/39 2/26/40
f 9/27/41 10/28/42 11/29/43 12/30/44 13/31/45 14/32/46 15/33/47 16/34/48
f 17/35/49 20/38/50 19/37/51 18/36/52
f 18/36/53 19/37/54 22/40/55 21/39/56
f 21/39/57 22/40/58 24/42/59 23/41/60
f 23/41/61 24/42/62 26/44/63 25/43/64
f 25/43/65 26/44/66 28/46/67 27/45/68
f 27/45/69 28/46/70 30/48/71 29/47/72
f 29/47/73 30/48/74 32/50/75 31/49/76
f 31/49/77 32/50/78 20/52/79 17/51/80
f 17/53/81 18/60/82 21/59/83 23/58/84 25/57/85 27/56/86 29/55/87 31/54/88
f 20/61/89 32/68/90 30/67/91 28/66/92 26/65/93 24/64/94 22/63/95 19/62/96
s 21
f 33/69/97 36/70/98 35/71/99 34/72/100
s 22
f 34/72/101 35/71/102 38/73/103 37/74/104
s 23
f 37/74/105 38/73/106 40/75/107 39/76/108
s 24
f 39/77/109 40/78/110 42/79/111 41/80/112
s 25
f 41/80/113 42/79/114 44/81/115 43/82/116
s 26
f 43/82/117 44/81/118 36/70/119 33/69/120
f 44/81/118 46/83/121 45/84/122 36/70/119
s 25
f 42/79/114 47/85/123 46/83/124 44/81/115
s 24
f 40/78/110 48/86/125 47/85/126 42/79/111
s 23
f 38/73/106 49/87/127 48/88/128 40/75/107
s 22
f 35/71/102 50/89/129 49/87/130 38/73/103
s 21
f 36/70/98 45/84/131 50/89/132 35/71/99
s 26
f 46/83/121 52/90/133 51/91/134 45/84/122
s 25
f 47/85/123 53/92/135 52/90/136 46/83/124
s 24
f 48/86/125 54/93/137 53/92/138 47/85/126
s 23
f 49/87/127 55/94/139 54/95/140 48/88/128
s 22
f 50/89/129 56/96/141 55/94/142 49/87/130
s 21
f 45/84/131 51/91/143 56/96/144 50/89/132
s 24
f 54/93/137 58/97/145 57/98/146 53/92/138
s 23
f 55/94/139 59/99/147 58/100/148 54/95/140
s 22
f 56/96/141 60/101/149 59/99/150 55/94/142
s 21
f 51/91/143 61/102/151 60/101/152 56/96/144
s 26
f 52/90/133 62/103/153 61/102/154 51/91/134
s 25
f 53/92/135 57/98/155 62/103/156 52/90/136
s off
f 63/104/157 66/105/158 65/106/159 64/107/160
f 67/108/161 68/109/162 66/110/163 63/111/164
f 69/112/165 70/113/166 68/109/167 67/108/168
f 71/114/169 72/115/170 70/113/171 69/112/172
f 73/116/173 74/117/174 72/115/175 71/114/176
f 64/107/177 65/106/178 74/117/179 73/116/180
s 33
f 75/118/181 76/119/182 92/120/183 87/121/184
s 34
f 76/119/185 77/122/186 91/123/187 92/120/188
s 35
f 77/122/189 78/124/190 90/125/191 91/123/192
s 36
f 78/126/193 79/127/194 89/128/195 90/129/196
s 37
f 79/127/197 80/130/198 88/131/199 89/128/200
s 38
f 80/130/201 75/118/202 87/121/203 88/131/204
f 88/131/204 87/121/203 93/132/205 94/133/206
s 37
f 89/128/200 88/131/199 94/133/207 95/134/208
s 36
f 90/129/196 89/128/195 95/134/209 96/135/210
s 35
f 91/123/192 90/125/191 96/136/211 97/137/212
s 34
f 92/120/188 91/123/187 97/137/213 98/138/214
s 33
f 87/121/184 92/120/183 98/138/215 93/132/216
s 38
f 94/133/206 93/132/205 103/139/217 104/140/218
s 37
f 95/134/208 94/133/207 104/140/219 99/141/220
s 36
f 96/135/210 95/134/209 99/141/221 100/142/222
s 35
f 97/137/212 96/136/211 100/143/223 101/144/224
s 34
f 98/138/214 97/137/213 101/144/225 102/145/226
s 33
f 93/132/216 98/138/215 102/145/227 103/139/228
s 36
f 100/142/222 99/141/221 85/146/229 84/147/230
s 35
f 101/144/224 100/143/223 84/148/231 83/149/232
s 34
f 102/145/226 101/144/225 83/149/233 82/150/234
s 33
f 103/139/228 102/145/227 82/150/235 81/151/236
s 38
f 104/140/218 103/139/217 81/151/237 86/152/238
s 37
f 99/141/220 104/140/219 86/152/239 85/146/240
s off
f 112/153/241 111/154/242 109/155/243 108/156/244
f 113/157/245 112/158/246 108/159/247 107/160/248
f 114/161/249 113/157/250 107/160/251 106/162/252
f 115/163/253 114/161/254 106/162/255 105/164/256
f 116/165/257 115/163/258 105/164/259 110/166/260
f 111/154/261 116/165/262 110/166/263 109/155/264
