# This file uses centimeters as units for non-parametric coordinates.

g default
v 0.624198 3.385026 4.564390
v 0.836606 3.172617 4.639568
v 0.836606 2.747715 4.789955
v 0.624198 2.535307 4.865133
v 0.836606 3.172617 2.670085
v 0.624198 2.535307 2.504280
v 0.624198 3.385025 2.725345
v 0.836606 2.747715 2.559541
v 0.000000 3.385025 4.564390
v 0.000000 2.535307 4.865133
v 0.000000 3.385025 2.725345
v 0.000000 2.535307 2.504281
v -0.624198 2.535307 4.865133
v -0.624198 2.535307 2.504280
v -0.836606 3.172617 4.639567
v -0.836606 2.747715 4.789955
v -0.836606 2.747715 2.559541
v -0.836606 3.172617 2.670084
v -0.624198 3.385025 4.564389
v -0.624198 3.385025 2.725345
vt 0.798049 0.467335
vt 0.763305 0.467215
vt 0.763305 0.345470
vt 0.797722 0.345470
vt 0.840358 0.455576
vt 0.815965 0.463383
vt 0.815764 0.347857
vt 0.840358 0.353351
vt 0.858543 0.451686
vt 0.858543 0.356307
vt 0.897254 0.356307
vt 0.897254 0.451686
vt 0.897254 0.515792
vt 0.858543 0.515792
vt 0.840358 0.499245
vt 0.840358 0.466920
vt 0.840358 0.340278
vt 0.840358 0.308010
vt 0.858543 0.292224
vt 0.897254 0.292224
vt 0.798049 0.467335
vt 0.797722 0.345470
vt 0.763305 0.345470
vt 0.763305 0.467215
vt 0.840358 0.455576
vt 0.840358 0.353351
vt 0.815764 0.347857
vt 0.815965 0.463383
vt 0.858543 0.451686
vt 0.858543 0.356307
vt 0.897254 0.451686
vt 0.897254 0.356307
vt 0.840358 0.466920
vt 0.840358 0.499245
vt 0.858543 0.515792
vt 0.897254 0.515792
vt 0.897254 0.292224
vt 0.858543 0.292224
vt 0.840358 0.308010
vt 0.840358 0.340278
vn -0.000000 -1.000000 0.000000
vn -0.000000 -1.000000 0.000000
vn -0.000000 -1.000000 0.000000
vn -0.000000 -1.000000 0.000000
vn 1.000000 0.000000 -0.000000
vn 1.000000 0.000000 -0.000000
vn 1.000000 0.000000 -0.000000
vn 1.000000 0.000000 -0.000000
vn 0.707107 0.707106 0.000000
vn 0.707107 0.707106 0.000000
vn 0.707107 0.707106 0.000000
vn 0.707107 0.707106 0.000000
vn 0.707107 -0.707107 -0.000000
vn 0.707107 -0.707107 -0.000000
vn 0.707107 -0.707107 -0.000000
vn 0.707107 -0.707107 -0.000000
vn -0.000000 1.000000 0.000000
vn -0.000000 1.000000 0.000000
vn -0.000000 1.000000 0.000000
vn -0.000000 1.000000 0.000000
vn -0.000000 0.333651 0.942697
vn -0.000000 0.333651 0.942697
vn -0.000000 0.333651 0.942697
vn -0.000000 0.333651 0.942697
vn -0.000000 0.333651 0.942697
vn -0.000000 0.333651 0.942697
vn -0.000000 0.251781 -0.967784
vn -0.000000 0.251781 -0.967784
vn -0.000000 0.251781 -0.967784
vn -0.000000 0.251781 -0.967784
vn -0.000000 0.251781 -0.967784
vn -0.000000 0.251781 -0.967784
vn 0.000000 -1.000000 0.000000
vn 0.000000 -1.000000 0.000000
vn 0.000000 -1.000000 0.000000
vn 0.000000 -1.000000 0.000000
vn -1.000000 0.000000 -0.000000
vn -1.000000 0.000000 -0.000000
vn -1.000000 0.000000 -0.000000
vn -1.000000 0.000000 -0.000000
vn -0.707107 0.707107 0.000000
vn -0.707107 0.707107 0.000000
vn -0.707107 0.707107 0.000000
vn -0.707107 0.707107 0.000000
vn -0.707107 -0.707107 -0.000000
vn -0.707107 -0.707107 -0.000000
vn -0.707107 -0.707107 -0.000000
vn -0.707107 -0.707107 -0.000000
vn 0.000000 1.000000 0.000000
vn 0.000000 1.000000 0.000000
vn 0.000000 1.000000 0.000000
vn 0.000000 1.000000 0.000000
vn -0.000000 0.333651 0.942697
vn -0.000000 0.333651 0.942697
vn -0.000000 0.333651 0.942697
vn -0.000000 0.333651 0.942697
vn -0.000000 0.333651 0.942697
vn -0.000000 0.333651 0.942697
vn 0.000001 0.251781 -0.967784
vn 0.000001 0.251781 -0.967784
vn 0.000001 0.251781 -0.967784
vn 0.000001 0.251781 -0.967784
vn 0.000001 0.251781 -0.967784
vn 0.000001 0.251781 -0.967784
s off
g polySurface652 polySurface648
f 4/1/1 10/2/2 12/3/3 6/4/4
f 2/5/5 3/6/6 8/7/7 5/8/8
f 1/9/9 2/5/10 5/8/11 7/10/12
f 3/6/13 4/1/14 6/4/15 8/7/16
f 7/10/17 11/11/18 9/12/19 1/9/20
f 1/9/21 9/12/22 10/13/23 4/14/24 3/15/25 2/16/26
f 7/10/27 5/17/28 8/18/29 6/19/30 12/20/31 11/11/32
f 13/21/33 14/22/34 12/23/35 10/24/36
f 15/25/37 18/26/38 17/27/39 16/28/40
f 19/29/41 20/30/42 18/26/43 15/25/44
f 16/28/45 17/27/46 14/22/47 13/21/48
f 20/30/49 19/29/50 9/31/51 11/32/52
f 19/29/53 15/33/54 16/34/55 13/35/56 10/36/57 9/31/58
f 20/30/59 11/32/60 12/37/61 14/38/62 17/39/63 18/40/64
